<svg xmlns="http://www.w3.org/2000/svg" viewBox="0 0 757.46 705.7"><defs><style>.cls-1{fill:#d0f1ee;}.cls-2{fill:#008bba;}.cls-3{fill:#002e4e;}.cls-4{fill:#ffc735;}.cls-5{fill:#004d74;}.cls-6{fill:#e8b899;}.cls-7{fill:#a0dedd;}.cls-8{fill:#00315f;}.cls-9{fill:#f2c9af;}.cls-10{fill:#ffb239;}.cls-11{fill:#00385d;}.cls-12{fill:#f0ecf0;}.cls-13{fill:#009bd1;}.cls-14{fill:#161915;}.cls-15{fill:#fff;}.cls-16{fill:#646376;}.cls-17{fill:#9eb6da;}</style></defs><g id="Layer_2" data-name="Layer 2"><g id="_Layer_" data-name="&lt;Layer&gt;"><path class="cls-1" d="M244,655.15a11,11,0,1,0,15.51,1.62A11,11,0,0,0,244,655.15Z"/><circle class="cls-1" cx="288.68" cy="683.85" r="10.7" transform="translate(-327.67 270.22) rotate(-33.25)"/><path class="cls-1" d="M320.41,688a8.83,8.83,0,1,0,12.41,1.3A8.83,8.83,0,0,0,320.41,688Z"/><path class="cls-1" d="M361.16,693.05a7.12,7.12,0,1,0,10,1.05A7.13,7.13,0,0,0,361.16,693.05Z"/><path class="cls-1" d="M398.42,689.25a6.6,6.6,0,1,0,9.29,1A6.63,6.63,0,0,0,398.42,689.25Z"/><path class="cls-1" d="M428.05,680.2a5,5,0,1,0,7,.74A5,5,0,0,0,428.05,680.2Z"/><path class="cls-1" d="M456.64,667.08a4.24,4.24,0,1,0,6,.63A4.25,4.25,0,0,0,456.64,667.08Z"/><path class="cls-1" d="M480.81,650.52A3,3,0,1,0,485,651,3,3,0,0,0,480.81,650.52Z"/><path class="cls-1" d="M497.77,634.86a2.12,2.12,0,1,0,3,.31A2.11,2.11,0,0,0,497.77,634.86Z"/><path class="cls-1" d="M50.54,180a11,11,0,1,0-1.62,15.5A11,11,0,0,0,50.54,180Z"/><circle class="cls-1" cx="21.85" cy="224.74" r="10.7" transform="translate(-170.04 105.71) rotate(-52.64)"/><path class="cls-1" d="M17.73,256.47a8.83,8.83,0,1,0-1.29,12.41A8.82,8.82,0,0,0,17.73,256.47Z"/><path class="cls-1" d="M12.64,297.22a7.11,7.11,0,1,0-1,10A7.12,7.12,0,0,0,12.64,297.22Z"/><path class="cls-1" d="M16.44,334.48a6.6,6.6,0,1,0-1,9.29A6.61,6.61,0,0,0,16.44,334.48Z"/><path class="cls-1" d="M25.49,364.11a5,5,0,1,0-.73,7A5,5,0,0,0,25.49,364.11Z"/><path class="cls-1" d="M38.61,392.7a4.24,4.24,0,1,0-.62,6A4.25,4.25,0,0,0,38.61,392.7Z"/><path class="cls-1" d="M55.17,416.87a3,3,0,1,0-.44,4.21A3,3,0,0,0,55.17,416.87Z"/><path class="cls-1" d="M70.84,433.83a2.12,2.12,0,1,0-.31,3A2.11,2.11,0,0,0,70.84,433.83Z"/><path class="cls-2" d="M516.91,50.54a11,11,0,1,0-15.51-1.62A11,11,0,0,0,516.91,50.54Z"/><path class="cls-2" d="M478.91,30.15a10.7,10.7,0,1,0-15.05-1.57A10.69,10.69,0,0,0,478.91,30.15Z"/><path class="cls-2" d="M440.45,17.73A8.83,8.83,0,1,0,428,16.44,8.83,8.83,0,0,0,440.45,17.73Z"/><path class="cls-2" d="M399.7,12.64a7.12,7.12,0,1,0-10-1A7.11,7.11,0,0,0,399.7,12.64Z"/><path class="cls-2" d="M362.43,16.44a6.6,6.6,0,1,0-9.29-1A6.6,6.6,0,0,0,362.43,16.44Z"/><path class="cls-2" d="M332.81,25.49a5,5,0,1,0-7-.73A5,5,0,0,0,332.81,25.49Z"/><path class="cls-2" d="M304.21,38.61a4.23,4.23,0,1,0-5.95-.62A4.23,4.23,0,0,0,304.21,38.61Z"/><path class="cls-2" d="M280.05,55.17a3,3,0,1,0-4.22-.44A3,3,0,0,0,280.05,55.17Z"/><path class="cls-2" d="M263.09,70.84a2.12,2.12,0,1,0-3-.31A2.13,2.13,0,0,0,263.09,70.84Z"/><path class="cls-1" d="M706.92,424.55a11,11,0,1,0,1.62-15.5A11,11,0,0,0,706.92,424.55Z"/><path class="cls-1" d="M727.31,386.55a10.69,10.69,0,1,0,1.57-15A10.69,10.69,0,0,0,727.31,386.55Z"/><path class="cls-1" d="M739.73,348.09A8.83,8.83,0,1,0,741,335.68,8.82,8.82,0,0,0,739.73,348.09Z"/><path class="cls-1" d="M744.82,307.34a7.11,7.11,0,1,0,1-10A7.12,7.12,0,0,0,744.82,307.34Z"/><path class="cls-1" d="M741,270.08a6.6,6.6,0,1,0,1-9.29A6.61,6.61,0,0,0,741,270.08Z"/><path class="cls-1" d="M732,240.45a5,5,0,1,0,.73-7A5,5,0,0,0,732,240.45Z"/><path class="cls-1" d="M718.85,211.86a4.24,4.24,0,1,0,.62-6A4.25,4.25,0,0,0,718.85,211.86Z"/><path class="cls-1" d="M702.29,187.69a3,3,0,1,0,.44-4.21A3,3,0,0,0,702.29,187.69Z"/><path class="cls-1" d="M686.62,170.73a2.12,2.12,0,1,0,.31-3A2.11,2.11,0,0,0,686.62,170.73Z"/><rect class="cls-2" x="141.03" y="471.09" width="487.9" height="36.83"/><polygon class="cls-2" points="142.25 542.8 35.66 489.5 142.25 436.2 142.25 542.8"/><rect class="cls-1" x="97.68" y="417.23" width="422.63" height="36.83" transform="translate(744.65 126.65) rotate(90)"/><polygon class="cls-1" points="255.7 225.55 309 118.95 362.3 225.55 255.7 225.55"/><rect class="cls-3" x="252.3" y="311.86" width="422.63" height="36.83" transform="translate(133.34 793.88) rotate(-90)"/><polygon class="cls-3" points="516.91 540.37 463.61 646.96 410.31 540.37 516.91 540.37"/><rect class="cls-4" x="142.25" y="246.93" width="480.2" height="36.83" transform="translate(764.71 530.68) rotate(180)"/><polygon class="cls-4" points="621.23 212.04 727.83 265.34 621.23 318.64 621.23 212.04"/><path class="cls-5" d="M532.5,208.05a68,68,0,0,0-10.84,10.29l-.14.15L511,216.63c1.84-2.15,5.05-7.49,8.36-13.8Z"/><polygon class="cls-6" points="501.84 234.59 507.31 225.76 513.16 222.64 516.93 228.58 508.33 237.38 501.82 240.91 501.84 234.59"/><path class="cls-7" d="M601.06,236.44c0,.13,0,.25-.08.37s0,.15,0,.23l-.06.26c0,.15,0,.24-.07.32s-.08.29-.11.44c-13.63-8.4-28.14-15.17-42.63-34.57-.9-1.2-1.79-2.44-2.68-3.74l.38-.67c.1-.17.2-.34.29-.51h.56l.23,0h.1l.35,0,.17,0,.33,0,.17,0,.23,0,.32,0,.17,0,.34,0,.33.05.68.09.47.06.65.1.22,0,.21,0,.23,0,.22,0c5.42.8,13.35,2.1,20.4,3.39,8,1.47,14.85,2.92,15.66,3.58,0,.2.07.41.1.63l0,.17c.23,1.41.55,3.13.9,5a1.84,1.84,0,0,1,0,.25q.18,1,.36,2l.09.48c0,.25.09.49.13.74l.09.5c0,.17,0,.33.08.5.16.94.32,1.9.47,2.87,0,.16.05.32.07.48.1.66.2,1.32.28,2,.14,1,.27,2,.37,3.06,0,.12,0,.24,0,.36,0,.48.09,1,.12,1.43,0,.28.05.57.07.85,0,.09,0,.17,0,.25l.06,1.06c0,.14,0,.29,0,.44s0,.37,0,.56,0,.33,0,.5v1.33c0,.12,0,.25,0,.38v.2c0,.1,0,.2,0,.3l0,.62c0,.11,0,.22,0,.32s0,.32,0,.48l0,.36a.38.38,0,0,1,0,.1l0,.31s0,.08,0,.12,0,.21,0,.32,0,.25,0,.37,0,.09,0,.13,0,.22,0,.31Z"/><path class="cls-8" d="M526.56,187.62c3.72-1.17,7.88-1.37,10.23,1.28,1.88,2.11,3.77,3,2.6,7.68a43.4,43.4,0,0,0-1,5.16,56.56,56.56,0,0,0,5.44-9.69c.23-.54.47-1.17.74-1.88.54-1.44,1.18-3.24,1.89-5.37.09-.24.17-.49.26-.75s.18-.52.26-.79c1.24-3.68,2.75-8.28,4.44-13.63a.38.38,0,0,1,0-.1,6.63,6.63,0,0,0-.36-2.31c-4.23,6.37-13.58,13.29-22.5,16.13C527.92,184.7,527.23,186.15,526.56,187.62Z"/><path class="cls-5" d="M511,216.62a37.59,37.59,0,0,1,5.79.65c1.32.24,2.64.54,4,.84l1,.23c1.13.27,2.26.54,3.39.79,4.23-5.13,7.63-9.47,10.36-13.22,1.08-1.47,2.05-2.87,2.93-4.17a56.56,56.56,0,0,0,5.44-9.69c.23-.54.47-1.17.74-1.88.54-1.44,1.18-3.24,1.89-5.37.09-.24.17-.49.26-.75s.17-.52.26-.79c1.24-3.71,2.69-8.26,4.35-13.54a.75.75,0,0,1,.05-.16l0,.07c5,8.22,7.26,14.08,6.16,20.1a26.1,26.1,0,0,1-1.51,5q-.54,1.33-1.23,2.73l-.18.35-.28.55L554,199c-.81,1.5-1.73,3.07-2.77,4.75.73-.1,1.45-.17,2.16-.22a36.73,36.73,0,0,1,4.68-.05,34.62,34.62,0,0,1,4.15.49c17.56,3.23,28.53,18,38.25,33.1a36.71,36.71,0,0,0,.44-4c0-.11,0-.17,0-.24s0-.15,0-.23,0-.22,0-.34,0-.22,0-.33v-.34c0-.34,0-.67,0-1v-1c0-.33,0-.66,0-1s0-.88,0-1.32c0-.21,0-.44,0-.65a.41.41,0,0,0,0-.11c0-.4,0-.8,0-1.21s0-.86,0-1.29c0-.08,0-.16,0-.24s0-.31,0-.46c0-.45,0-.9,0-1.36,0-1.72,0-3.48.18-5.35.16-1.71.35-3.45.58-5.21,2.94,3.71,4.16,11.12,6.19,15.52,2.2-4.8,6.69-11.81,9.9-17.73,5.91-10.92,9.72-15,10.29-18.84,1.72-11.64-16.95-62.45-19.77-63.84a22,22,0,0,0-5.67-1.79,108.51,108.51,0,0,0-12.62-1c-3.38-.16-6.64-.3-9.1-.61-3.62-.44-4.07-2.61-5.37-8.94-.49-2.39-1.1-5.36-2.06-9.06a166.16,166.16,0,0,0-18,.22c-.06.06-.13.12-.19.19a9.94,9.94,0,0,0-1,3c0,.09,0,.18,0,.28l0,.21a.31.31,0,0,0,0,.1l0,.22c0,.13,0,.21,0,.3a1.1,1.1,0,0,0,0,.24.49.49,0,0,0,0,.12c0,.08,0,.16,0,.23a2.53,2.53,0,0,1,0,.28v.35c0,.08,0,.17,0,.25a2.44,2.44,0,0,0,0,.27c0,.13,0,.26,0,.4a1.11,1.11,0,0,1,0,.19c0,.16,0,.32,0,.48s0,.24,0,.37,0,.37.07.56,0,.24,0,.37c.06.32.11.65.17,1l0,.23a1,1,0,0,1,0,.18l0,.2c.16.83.34,1.69.53,2.61l.09.43.15.7c.11.55.23,1.1.34,1.66,0,.1,0,.19.06.29l.06.29c.17.83.5,2.11.86,3.43l.15.57c.63,2.28,1.29,4.5,1.29,4.5-.74.41-1.49.79-2.26,1.15-1.62.78-3.28,1.48-5,2.18-6.78,2.81-13.5,5.73-18.71,12.49-2.14,2.77-.74,19.52-3.41,37.81-.21,1.47-1.31,2.8-2,4.27-.32.69-.63,1.39-.93,2.07-1.9,4.37-4.13,9-6.31,13.14C516,209.14,512.8,214.49,511,216.62Zm91.52-12.09c.22-1.38.43-2.77.65-4.16,2.06-13.41,4.79-24.66,1.16-37.11,2.62,8.67,6.91,25.13,6.43,27.12C610.1,193,603.06,203.34,602.48,204.53Z"/><path class="cls-1" d="M578.41,186c-11.71-25.88-21.16-45.75-27.75-53,1.68-.7,3.34-1.4,5-2.17.77-.37,1.52-.76,2.26-1.16,0,0-.66-2.22-1.29-4.51l-.15-.56c-.36-1.32-.69-2.6-.86-3.43l-.06-.29-.06-.29c-.11-.56-.23-1.11-.34-1.64q-.07-.37-.15-.72l-.09-.43c-.2-.92-.37-1.79-.52-2.61a1.77,1.77,0,0,1,0-.2l0-.19a1.43,1.43,0,0,1,0-.22c-.06-.33-.12-.66-.16-1,0-.12,0-.24-.05-.36s0-.38-.07-.56,0-.25,0-.37,0-.32,0-.48a1.34,1.34,0,0,1,0-.2l0-.39V111a2.09,2.09,0,0,1,0-.25v-.34c0-.1,0-.2,0-.29s0-.15,0-.22a.53.53,0,0,1,0-.13c0-.07,0-.14,0-.21s0-.21,0-.29,0-.19,0-.26,0-.07,0-.11l0-.2c0-.1,0-.19,0-.28a10.09,10.09,0,0,1,1-3l.19-.18a166.16,166.16,0,0,1,18-.22c1,3.7,1.57,6.67,2.06,9.06,1.31,6.34,1.75,8.5,5.37,8.94,2.46.3,5.72.45,9.1.61a167.43,167.43,0,0,0-4.3,18.19C583.27,154.19,579,173.53,578.41,186Z"/><path class="cls-5" d="M458.84,333.24s-2.48,6.17,4.32,8.26,11.15.57,15-3.62,5.29-9.72,6.45-12.59l-18.87,8.84Z"/><path class="cls-5" d="M488.09,316.79c-.56,1.24-1.09,2.5-1.6,3.76-1.25,3.1-2.42,6.18-3.76,9-3.4,7-8.09,13.4-17.94,11.59-3.63-.66-6.68-3.84-6-7.38.67-3.69,10.88-11.82,17.43-18.38a35.89,35.89,0,0,0,4.36-5C484.4,311.61,485.91,313.47,488.09,316.79Z"/><path class="cls-6" d="M488.09,316.79c-.56,1.24-1.09,2.5-1.6,3.76-2.52,1.73-5.57,3.42-7.2,3.12-3.4-.63-3.77-4.66-3.14-8.1,0-.08,0-.15,0-.23a35.89,35.89,0,0,0,4.36-5C484.4,311.61,485.91,313.47,488.09,316.79Z"/><path class="cls-5" d="M470.92,324.89c1.31-1.53,6.3-6.81,9.38-5.68,2.27.82,1.91,4.51,1.15,6.6-.87,2.41-2.37,3.45-5,2.48C474.46,327.58,472.62,325.89,470.92,324.89Z"/><path class="cls-5" d="M450.56,255.79s-8.09,5.83-3.58,13.71c1.55,2.71,5.42,4.43,8.92,4.62,6.19.34,13.21-1.91,16.93-3.61,6.15-2.8,8.56-4.77,10.91-6.88l-18.16-5.09Z"/><path class="cls-5" d="M497.25,250.17l-.32.28c-2.7,2.39-5.07,5.07-7.52,7.68a64.06,64.06,0,0,1-5.67,5.5c-3.49,2.91-20.27,10.6-28.23,9.14-5.57-1-9.91-4.83-9-9.84,2.47-13.47,19.72-10.52,34.33-14A28.8,28.8,0,0,0,493,243.31c.17-.13.33-.27.49-.41a31.29,31.29,0,0,0,1.41,3.22c.32.65.67,1.29,1,1.93S496.8,249.45,497.25,250.17Z"/><path class="cls-6" d="M496.93,250.45c-2.7,2.39-5.07,5.07-7.52,7.68a16.78,16.78,0,0,1-6.47.32c-3.36-.61-5.66-3.14-5.49-4.06a11.12,11.12,0,0,1,3.39-5.44A28.8,28.8,0,0,0,493,243.31c.68.92,1.32,1.85,1.9,2.81.37.63.72,1.27,1,1.93A20,20,0,0,1,496.93,250.45Z"/><path class="cls-7" d="M601.06,236.44c0,.13,0,.25-.08.37s0,.15,0,.23l-.06.26c0,.15,0,.24-.07.32s-.08.29-.11.44A14.37,14.37,0,0,1,590,248.85c-6.87,1.87-14.89.12-18.34-.76a62.53,62.53,0,0,1-13.82-1.25s-13.07,7.91-16,9.12c-15.57,6.43-30,13-30,13-6.29,16.77-15.09,40.46-22.62,52.78-7.34-2-8.51-4.46-15.78-6.68-.1-1.55,2.07-6.24,2.77-7.57,8.83-16.92,12.18-35.5,16.12-46.22.45-1.23.91-2.36,1.39-3.37a15.1,15.1,0,0,1,2.45-3.87c6.65-7.12,22.29-10.28,42.86-28,6.48-5.59,10.37-14.58,14.4-22.5.58-1.14,1.16-2.25,1.75-3.33.09-.15.17-.3.25-.45l.38-.67c.1-.17.2-.34.29-.51h.56l.23,0h.1l.35,0,.17,0,.33,0,.17,0,.23,0,.32,0,.17,0,.34,0,.33.05.68.09.47.06.65.1.22,0,.21,0,.23,0,.22,0c5.42.8,13.35,2.1,20.4,3.39,8,1.47,14.85,2.92,15.66,3.58,0,.2.07.41.1.63l0,.17c.23,1.41.55,3.13.9,5a1.84,1.84,0,0,1,0,.25q.18,1,.36,2l.09.48c0,.25.09.49.13.74l.09.5c0,.17,0,.33.08.5.16.94.32,1.9.47,2.87,0,.16.05.32.07.48.1.66.2,1.32.28,2,.14,1,.27,2,.37,3.06,0,.12,0,.24,0,.36,0,.48.09,1,.12,1.43,0,.28.05.57.07.85,0,.09,0,.17,0,.25l.06,1.06c0,.14,0,.29,0,.44s0,.37,0,.56,0,.33,0,.5v1.33c0,.12,0,.25,0,.38v.2c0,.1,0,.2,0,.3l0,.62c0,.11,0,.22,0,.32s0,.32,0,.48l0,.36a.38.38,0,0,1,0,.1l0,.31s0,.08,0,.12,0,.21,0,.32,0,.25,0,.37,0,.09,0,.13,0,.22,0,.31Z"/><path class="cls-1" d="M600.85,237.58A14,14,0,0,1,590,248.85a19.43,19.43,0,0,1-5.34.45c-8.2-.41-15.43-8.22-27.18-18.52-.51-.45-7.8-7.27-7.8-7.27-2.42,1.41-7.19,4.17-8.27,4.73-11.43,6-23.72,12.07-46.85,31.2-.53.44-1.07.88-1.61,1.34l-.63.52c-2.22-3.69-7-11.75-6.05-16.63.37-2,7.56-6.31,13.69-10,3-1.81,5.78-3.47,7.33-4.65,6-4.5,14.59-13.57,23.78-20.84,6.7-5.3,13.7-9.65,20.2-10.62a16.05,16.05,0,0,1,5.36,0,131.78,131.78,0,0,1,19.33,8.51c1.25.67,2.52,1.38,3.78,2.13,1.44.85,2.88,1.74,4.29,2.68,6.93,4.61,13.16,10.24,15.78,16.57a17,17,0,0,1,1.15,4.08,15.49,15.49,0,0,1,.17,2.46c0,.34,0,.68-.05,1s-.07.65-.11,1Z"/><path class="cls-7" d="M545.67,227.79a94.45,94.45,0,0,0,7.32-8.43c-.39.89-.74,1.81-1.12,2.7,1.71-1.08,2.79-2.82,4-4.38-1,2.93-2.75,4.82-4.51,7.26-.52.72-1,2.11-1.85,2.51C548.4,228,546.84,227.74,545.67,227.79Z"/><path class="cls-5" d="M471.75,252.72a19.68,19.68,0,0,1,5.07-1.08c3.49-.21,5.7,1,5.83,3.08s-1.63,4.7-5.9,7.72A23.87,23.87,0,0,1,471.75,252.72Z"/><path class="cls-3" d="M559.13,76.91c-3.81-1.06-3.39-1.22-6.48-3.65a29.13,29.13,0,0,0,1.69,3.63c-4.64-1.31-10.68.87-14.05,6.43a20.84,20.84,0,0,0,2.09.06,10.48,10.48,0,0,1-6.22,6.19c.53.15,1.06.28,1.59.38a12.3,12.3,0,0,0,1.63.2,5.78,5.78,0,0,1,0,2.11,5.22,5.22,0,0,1-2.3,3.37,10.67,10.67,0,0,0,1.32.34,7.67,7.67,0,0,0,1.52.13c-.21,3.08-1.06,6.24-.14,9.28q1.55-1.63,3.05-3.31c0,.6-2.49,7.82,7.9,9.73,6.72,1.23,14-3,19.8-2,1.92.35,3.76,1.12,5.69,1.53a13.72,13.72,0,0,0-.19-1.92l1.08.23a24,24,0,0,0-.91-5.3l1.82.58A27.17,27.17,0,0,0,576.24,96a19.11,19.11,0,0,1,3.12,2c-.51-1-1-1.91-1.57-2.86a9.44,9.44,0,0,0,4.17-.77,15.3,15.3,0,0,1-5.81-3.68c1.2,0,3.37,1.65,4.57,1.44-2.5-3.31-3-6.26-9.06-9.24,1.78.12,3.62.39,5.32-.26a15.42,15.42,0,0,0-1.73-.4c-1.45-.27-2.92-.4-4.37-.66-.52-.1-1-.21-1.54-.35A12.9,12.9,0,0,0,574,79.78c-.35-.1-.7-.17-1.05-.24-1.93-.35-3.91-.32-5.86-.49,2.18-1.06,2.66-2,2.58-3.1-2.66,1.57-5.65,1.87-5.86,2.37-.88-2.6-4.89-5-6.45-6.18C558.23,74.47,557.82,74.79,559.13,76.91Z"/><path class="cls-9" d="M575.37,114.11c-3.67,3.73-9.42,8.55-16.53,10.49-.71.2-1.51.47-2.25.61-.36-1.31-.84-3.16-1-4l-.06-.29-.06-.29c-.11-.56-.23-1.11-.34-1.64q-.07-.37-.15-.72l-.09-.43c-.2-.92-.37-1.79-.52-2.61a1.77,1.77,0,0,1,0-.2l0-.19a1.43,1.43,0,0,1,0-.22c-.06-.33-.12-.66-.16-1,0-.12,0-.24-.05-.36s0-.38-.07-.56,0-.25,0-.37,0-.32,0-.48a1.34,1.34,0,0,1,0-.2l0-.39V111a2.09,2.09,0,0,1,0-.25v-.34c0-.1,0-.2,0-.29s0-.15,0-.22a.53.53,0,0,1,0-.13c0-.07,0-.14,0-.21s0-.21,0-.29,0-.19,0-.26,0-.07,0-.11l0-.2c0-.1,0-.19,0-.28.85-4.63,4.76-8.59,15.72-15.09,1,2.71,1.74,5.16,2.38,7.38C573.8,106.5,574.7,110.85,575.37,114.11Z"/><path class="cls-6" d="M572.79,105.9c-1.42,7.75-8,14.6-14.18,18.23a21,21,0,0,1-2,1.08l-.15-.56c-.36-1.32-.69-2.6-.86-3.43l-.06-.29-.06-.29c-.11-.56-.23-1.11-.34-1.64a18.37,18.37,0,0,1-.27-6.49c.85-4.63,4.76-8.59,15.73-15.08,1,2.7,1.73,5.16,2.37,7.38C572.91,105.17,572.86,105.53,572.79,105.9Z"/><path class="cls-5" d="M601.16,235.81c0,.08,0,.16,0,.25,0-.41,0-.82,0-1.21a17.72,17.72,0,0,0-.19-1.86,25,25,0,0,0-1.13-4.49c-2.32-6.81-7.79-11-13.29-14.84-.83-.59-1.67-1.16-2.49-1.73a111.18,111.18,0,0,0-22.56-11.54c-1.4-.53-2.82-1-4.27-1.54l-.77-.26-.12,0a8.12,8.12,0,0,1-1.67-.73l.18-.35a3.38,3.38,0,0,0,1.81,1.14l.25,0h.1l.35,0,.17,0,.33,0,.17,0,.23,0,.32,0,.17,0,.34,0,.33.05.68.09.47.06.65.1.22,0,.21,0,.23,0,.22,0c5.42.8,13.52-.58,20.58.71,8,1.47,17.86,2.82,18.68,3.49.52,3.51-1.36,12.24-.55,18.39,0,.49,0,.94,0,1.39,0,.15,0,.31,0,.46V224c0,.43,0,.86,0,1.29s0,.81,0,1.21v.11c0,.06.16.1.38.15,0,.28.05.57.07.85,0,.09,0,.17,0,.25l.06,1.06c0,.14,0,.29,0,.44s0,.37,0,.56,0,.33,0,.5v1.33c0,.12,0,.25,0,.38v.2c0,.1,0,.2,0,.3l0,.62c0,.11,0,.22,0,.32s0,.32,0,.48l0,.36a.38.38,0,0,1,0,.1l0,.31s0,.08,0,.12,0,.21,0,.32,0,.25,0,.37,0,.09,0,.13A.13.13,0,0,1,601.16,235.81Z"/><path class="cls-6" d="M610.31,216.29c-4.59,6.26-8.14,12.85-13.25,18.79-5.34-15.51-6.4-13.8-6-16.13.2-1.09,1.06-2.13,3-3.19-.13-.29-.24-.6-.39-.87,3.28-2.58,9.67-3,9.67-3A12,12,0,0,1,610.31,216.29Z"/><path class="cls-9" d="M541.91,92.29c-1,7.36,2.64,7,1.27,13.68a10.46,10.46,0,0,1-.82,2.52c1,.94,2.26,1.47,2.92,2.71.94,1.75,1.66,9.93,3.75,10.31,6.28,1.1,22.15-6.83,24.37-18.92,1.64-9-.92-19.63-12.73-21.79-10.4-1.91-18,7-18.7,10.62C541.92,91.71,541.94,92,541.91,92.29Z"/><path class="cls-9" d="M518.49,220.88c-4.28,3.37-7.52,4.58-7.91,7.55-.19,1.45-.36,3.51-.46,4.7a2.28,2.28,0,0,0,.6,1.7c1.64,1.78,3.17,2.77,3.94,4.17a.77.77,0,0,1-.87,1.12,13,13,0,0,1-6.78-4.65c-1-1.62-.11-4.69-.7-6.63-.19.82-.4,1.83-.54,2.89a21.68,21.68,0,0,0-.13,4c1.32,3.41,5.32,4.31,5.1,7.6a1.07,1.07,0,0,1-.27.64,1.09,1.09,0,0,1-1.46.1c-1.92-1.55-6.08-5.28-7.08-7.58-.9-2.07-.36-5.59-.23-6.8.67-5.94,4.83-6.88,8.86-10.26Z"/><path class="cls-9" d="M501.72,230.71a3.85,3.85,0,0,0-2.68,2.65c-.62,2.12-.91,7.88,5,9.61.8.24,1.47.25,1.63-.29.64-2.2-3.34-2.47-3.11-6C502.75,233.91,503.59,233,501.72,230.71Z"/><path class="cls-9" d="M500,234.23a1.8,1.8,0,0,0-.93-.74c-1.14-.33-1.87,1.37-2.21,2.53-.72,2.46.63,6.52,2.22,7,.82.24,1.13-.14,1.43-1.17a4.87,4.87,0,0,0-.33-2.64C499.47,237.09,499.88,236.37,500,234.23Z"/><path class="cls-3" d="M542.15,88.27c-1.33,2.1-2.72,10.35,2.18,13.16.28-3.28.16-3.94.66-7.2a79.57,79.57,0,0,1,3,7.44c.17-3.41-.16-6.87.29-10.27,4.43,2.77,7.75,7.37,10.85,11.49a20.07,20.07,0,0,0-2.77-10.09,25.66,25.66,0,0,1,5.64,8.63,47.11,47.11,0,0,0,1.41-5.65c.08-.44.16-.88.23-1.33a47.58,47.58,0,0,1,.94,5c1.17-1.83,2-3.75,3.05-5.64,2.67,1.34,2.92,3,2.58,4.87-.21,1.16-.65,2.39-.88,3.64-.78,4.22,2,8.33,4.21,11.87a28.44,28.44,0,0,0-.41-6.9c.35.09.68.2,1,.32a47.35,47.35,0,0,0-.15-6.19c.7.85,1.45,1.63,2.21,2.42,1.86-13.39-5.08-23.46-13.88-25.07C556.16,77.68,547.76,79.38,542.15,88.27Z"/><path class="cls-5" d="M608,196l-9.59,16.14s6.29,11.69,9.29,14.71c0,0,7.66-16.49,9.9-20.64l-3.25-9Z"/><path class="cls-8" d="M587.31,123.54c-1.87,6.35-1.93,9.72-3.35,16.09-1.24,5.6-5.21,36.3-5.55,46.39,7.52-32.68,14.22-40.66,14.86-43.53a1.8,1.8,0,0,0-.86-2.17,20.43,20.43,0,0,0,2.1-2.76c.38-.77,2.6-10.49,3.26-13.44A23.59,23.59,0,0,0,587.31,123.54Z"/><path class="cls-8" d="M550.66,133.05c11.21,11.53,26.84,50,27.75,53-7.61-12.67-10.83-19.84-25.32-34.51a7.45,7.45,0,0,1,1.4-2,6.24,6.24,0,0,0-1.07-.29c-1-.18-1.07-.44-2-.62-1.76-.32-6.95-6.34-10.74-10.88A19.05,19.05,0,0,1,550.66,133.05Z"/><path class="cls-1" d="M606.18,225a118.38,118.38,0,0,0-7.76-12.85l-2.08,1.24,8.22,14.66Z"/><path class="cls-1" d="M512.09,216.83,510,219.35l8.82,1.72a16.72,16.72,0,0,0,2.73-2.58Z"/><path class="cls-8" d="M237.47,102.84c-1.41,7.13-3.19,14.94-3.19,22.28,0,7.82,3,12,3,20.45,0,6.73-1.93,12.86-3.91,19.56-12.47-29.2-22.72-14.26-22.72-31.06,0-16.32,6.07-16.52,11.38-21.73,3.36-3.3,8.19-9.73,13.68-9.73A6.83,6.83,0,0,1,237.47,102.84Z"/><path class="cls-8" d="M237.91,101.65c-.48,8.6-3.19,17.42-3.19,25.75,0,5.06,1.72,8.81,1.72,14.57a36.93,36.93,0,0,1-2.15,12,74.51,74.51,0,0,0,1.08-9.28c0-.39,0-.77,0-1.15a56.22,56.22,0,0,1-4.76,13.25c.92-4.78,2.28-9.58,2.28-14.47,0-7.38-3.65-10.51-3.65-19.11A44.56,44.56,0,0,1,231.27,111C233,105.17,232.74,104.16,237.91,101.65Z"/><path class="cls-8" d="M192.71,117.27c-5.34,15.37-9.14,41.05-9.3,45.71,3.72-1.41,7-4.36,11.13-4.36,3.79,0,7.25,2.26,11.05,2.26,8.21,0,5-7.2,5-17,0-6.48,4.31-16.11,4.31-16.11C207.91,123.67,199.5,121.82,192.71,117.27Z"/><path class="cls-3" d="M104.66,245.18c3,6.43,8.13,12.6,26.46,14.73,19.19,2.22,14.8,20,38.08,20a19.93,19.93,0,0,0,3.9-.63c0-29.58-39.08-40.7-60.75-40.7C109.27,238.61,106.65,244.56,104.66,245.18Z"/><path class="cls-6" d="M202.47,229.06c-37.9,8.82-45.64,14.43-57.94,18.4-7.71,2.5-15.05,4.22-18.51,6.27-4.43,2.63-8.9,13.37-10.35,19.06-2.23,8.77-11,37-27.65,55.31-2.72-1.62-5.46.35-7.49-2.17,5-12.77,8.79-30.57,13.94-43.3.84-2.11,1.59-4.33,2.27-6.64,3.72-12.6,4.06-28.74,13.21-38,9.69-9.8,44.8-25,76.89-32.53C188.36,221.36,200.44,213.4,202.47,229.06Z"/><path class="cls-9" d="M216.65,119.12a85.45,85.45,0,0,0-1.57,14.76c-.13,3.55-.18,7.08-.33,10.4,0,7.08-4.65,9.3-11,11.83a40,40,0,0,1-.89-7.4,1.15,1.15,0,0,1,0-.18c0-10.08-1.49-20.22-1.49-30.31,0-1.67.08-5.66,0-7.32.91.3,1.84.65,2.79,1A51.28,51.28,0,0,1,216.65,119.12Z"/><path class="cls-9" d="M228.06,216c2.42,5.24,1.72,17.56.27,20.78-2.62,5.84-9.48,10.54-20.21,12.3-8.59,1.41-18.25,3.65-27.31,3.65-11.94,0-25.84-.93-30.2-1.51,2.31,9,5.66,19.56,8.1,28.87.25,1,.48,1.92.68,2.88,3.49,16.86,4.55,32.17,7.93,48.95-3.61,2.19-5.11.69-8.58,3.08-7.46-16.51-14.77-33-20.45-51.57-2.82-9.26-8.86-24.18-10.36-29.66-1.22-4.44-1.91-7.17-1.91-7.43,0-20.72,60.38-15.21,60.38-35.3a47.77,47.77,0,0,1,.44-5.49c.21-1.72.47-3.4.67-4.66s.34-2.07.34-2.1c0-9.23-5.46-17.74-5.46-27.41,0-4.84.51-18.9,2.34-22.05a21.65,21.65,0,0,1,10.24-9.6c5.58-2.61,11.72-4.58,16.42-8.81a53.84,53.84,0,0,0,12.07,10.53c3.33,2.24,6.79,4.31,10.18,6.47-1.25,18.53-14.92,29-14.92,45a25,25,0,0,0,3.26,12C223.84,208.42,226.18,211.86,228.06,216Z"/><path class="cls-4" d="M193,147.29c-9,21.85,1.27,52.3-6.73,69.09-.23.5-.49,1-.76,1.45-5-1.27-18.21-3-18.21-8.16,0-2,5.93-7.68,7.68-16.49,2.4-12.11,4.9-20.21,6.52-29.56,1.47-8.51,2.46-14.34,5.63-17.08,1.17-1,4.82.53,6.24-.13C193.27,146.7,193.14,147,193,147.29Z"/><path class="cls-6" d="M216.65,119.12a85.45,85.45,0,0,0-1.57,14.76c-5.24-2.49-11.59-7.44-11.59-16.23a25.36,25.36,0,0,1,.65-5.71A51.28,51.28,0,0,1,216.65,119.12Z"/><path class="cls-10" d="M186.29,216.38c-2.86-1-9.36-.69-8.38-3.62,3-9,6.48-21.63,6.56-32,0-2.78,1.38-20.16,2-24.66a9.19,9.19,0,0,1,2.51-5.62c1.49-1.74-1.33-.53.5-1.57a25.39,25.39,0,0,1,3.51-1.63C184,169.14,194.29,199.59,186.29,216.38Z"/><path class="cls-9" d="M235.75,101.6c-3.75,7.31-6.13,29.07-13.57,30.29-1.77.29-18.33-3.83-18.63-18-.28-13.37,9.77-23.92,21.93-24.18,5.69-.12,10.37,2.6,10.51,8.92A16.3,16.3,0,0,1,235.75,101.6Z"/><path class="cls-11" d="M110,238c6.29-6.36,23.31-15,43.26-22.36a291.08,291.08,0,0,1,33.63-10.17c.21-1.7.47-3.38.67-4.64,6.43-.51,12.81-.75,19-.75a51,51,0,0,1,11.93,1.24l-5.61.69c2.84,1,6,1.8,9.11,2.81,1.86,3.58,4.2,7,6.08,11.12,2.42,5.24,3.28,15.3,1.8,20.25-2,6.64-9.75,12.52-20.86,14.34-3.6.59-22.94,2.14-28.19,2.14a285.81,285.81,0,0,1-28.59-1.28L110,238Z"/><path class="cls-11" d="M215.66,239c0,4.5-4.87,11.21-11.08,12.05-7,.95-8.15.71-13.24,1.63-7.68,1.39-10.45,5.42-11.52,7.7-4.17,8.92-5.74,13.39-6.72,18.92-4-8.67-8.92-11.38-15.66-12.66a30.67,30.67,0,0,1-6.47-1.84c-11.12-4.85-23.29-20.25-40.11-20.25a32.82,32.82,0,0,0-6.2.62A32.37,32.37,0,0,1,110,238c6.29-6.36,23.31-15,43.26-22.36.44,0,.86,0,1.27,0,8.6,0,17.18,8.35,25.34,11.63C186.08,229.77,215.66,226.56,215.66,239Z"/><path class="cls-4" d="M227.31,214.4q.39.76.75,1.56c-1-.4-2-.76-3-1.08-9.47-2.94-19.15-2.47-28.59-3.89a51.46,51.46,0,0,1-8.54-2c-4.23-1.4-2.44-8.28-2.43-8.39,2-14.41.37-21.19-1.44-31.38-.85-4.76-2.41-17-.57-20.17,2.71-4.65,6.92-7.24,11.52-9.39,2.37,4.06,4.85,7.93,9.94,7.93,5.48,0,12.56-3.94,18.55-6.21q1.88,1.26,3.8,2.47c2.12,1.34,4.26,2.65,6.38,4-.75,11.13-6,19.34-10,27.59-2.7,5.48-4.88,11-4.88,17.38a23.53,23.53,0,0,0,2.3,10C222.77,206.72,225.22,210.26,227.31,214.4Z"/><path class="cls-10" d="M221,202.88c1.75,3.84,4.2,7.38,6.29,11.52-.75.17-1.51.33-2.29.48-9.47-2.94-19.15-2.47-28.59-3.89C204.27,207.38,211.91,205.94,221,202.88Z"/><path class="cls-4" d="M223.6,175.47a70.76,70.76,0,0,1-2.36-16.7c0-6.92.95-13.56,6-14.89,2.12,1.34,4.26,2.65,6.38,4C232.89,159,227.66,167.22,223.6,175.47Z"/><path class="cls-4" d="M241.28,171.89a145.27,145.27,0,0,1,1.78,25.42c0,9.67-.74,14.15-6.5,17.14-9,4.65-23.58,4.27-39.48,8.48a49.43,49.43,0,0,1-3.19-7.36c11.17-6,21.46-6.75,35.57-12.65-.75-13.8-7.41-26.75-7.41-41.24,0-7.75,1.2-15.14,8-15.14C238.26,146.54,239.77,163.37,241.28,171.89Z"/><path class="cls-8" d="M217.12,82.54c14.29.8,21.09,8.41,21.09,18.82a24.42,24.42,0,0,1-3.06,11.21c.12-1.11.23-2.23.32-3.35-1.28,1.35-1.87,3-2.92,4.52.6-3.91.82-8,1.11-11.94-1,1.68-1.88,3.39-2.78,5.1,0-.21,0-.42,0-.64-1,1.36-1.9,2.82-3,4.12.44-4.1,1.76-8,1.76-12.11a17.88,17.88,0,0,0-.15-2.3c-.84,3.55-1.83,7.12-3.91,10.17.23-1.47.51-2.92.75-4.39a11.58,11.58,0,0,1-5,6.1,25.57,25.57,0,0,0,2.3-10.34,25.05,25.05,0,0,0-.22-3.3c-1.25,4.6-2.35,7.44-8.2,12.46.73-1.7,1.91-3.24,2.4-5-2.19,3-4.19,6-6.38,9v-.13a24.08,24.08,0,0,1,.7-5.4c-1.28,2-.12,3.3-1.26,5.33-.06-.68-.55-1.78-.55-2.45,0-.49-1.38-.37-1.34-.87a28.89,28.89,0,0,0-4.33,14.54c0,3.49-3.73,10.69-2.54,14.37-5.77-7.46-4.76-18.5-4.76-29.23C197.1,94.46,202.66,82.59,217.12,82.54Z"/><path class="cls-8" d="M211.13,83.34c-10.94,3.59-20.61,12.88-20.61,46.81,0,24.76,10.16,17,14.52,29.6,0-.38,0-.77,0-1.15a19.13,19.13,0,0,0-.86-6,15.85,15.85,0,0,1,5,8.17c-.57-10.24-6.58-14-6.58-33.1,0-11.06,2.53-21.2,5.42-33C209.13,90.3,209.2,87.51,211.13,83.34Z"/><path class="cls-9" d="M209.55,110.52c-.69-2.36-.45-3.42-2.14-3.42s-2.25,2.4-2.25,4.87c0,2.29.42,7.34,2.7,7.34,1.24,0,1.73-3.14,1.73-4.51a18.58,18.58,0,0,0,0-3.88A2.57,2.57,0,0,0,209.55,110.52Z"/><path class="cls-8" d="M218.77,97.38c-3.34,6.68-6.87,12.28-8.16,19.71-.44-2.57-.54-8.77-2.88-9.86-3.44-1.59,1.37-4.38,2.81-5.52C213,99.79,216.18,99.06,218.77,97.38Z"/><path class="cls-8" d="M202.73,109a35.08,35.08,0,0,0,1.74,9c0,3.85-.32,12.59-.32,16.46,0,15.48,9.15,16.77,9.15,27.58a30.82,30.82,0,0,1-1.33,8.29c-3.35-28.67-14.12-22.65-14.12-41.11C197.85,122.47,200.05,115.61,202.73,109Z"/><path class="cls-8" d="M212.64,86.52c-29.76,12.65-12.78,25-31.61,61.53,8.44-10.31,9.17-23.44,14.36-35.26C199.73,102.93,207.49,95.74,212.64,86.52Z"/><path class="cls-8" d="M193.87,116.07c-2.16,5.65-4.65,14.18-4.65,21.15,0,9.66,6.2,15.8,6.2,24.76,0,.22,0,.45,0,.67a19.89,19.89,0,0,0,.27-3.26c0-7.26-4.24-12.34-4.24-20,0-3.49.93-6.81,1.44-10.27A96.39,96.39,0,0,0,193.87,116.07Z"/><path class="cls-8" d="M205.35,114.91s-.92,24.36,2.77,32.34,5.26,10.71,5,12.42l-3.4-6.37-11.18-12.1,1.85-19.13,3.08-11.25Z"/><path class="cls-8" d="M221.84,83.1s-11.77-2.66-21,4.17c-11.6,8.57-8.8,28.64-11.61,39.62l10.84-15.49,11.07-20.58Z"/><path class="cls-9" d="M176.45,352.29c0,3-3.4,5.9-6.4,5.9-10.07,0-9.88-6.25-10.74-15.14a50,50,0,0,0-2.52-12.42c2.28-.11,7.4-2.53,9.8-2.53a112.52,112.52,0,0,0,6.1,12.13,27.86,27.86,0,0,1,1.41,2.85A26.77,26.77,0,0,1,176.45,352.29Z"/><path class="cls-6" d="M96.16,317.55a32.29,32.29,0,0,0-3.75,8.13c-.85,3-.88,4.76-2.6,6.75-2.45,2.85-6.73,4.28-10.14,6.22-4.73,2.68-8.69,7.79-15.33,7.79-3.22,0-5.61-2.13-5.61-4.58,0-3.33,3.24-6.35,7.18-9.06,2.51-1.73,5.3-3.33,7.73-4.8,6.58-4.74,8.06-6.51,10.77-13.49C85.44,311.86,93.6,316.11,96.16,317.55Z"/><path class="cls-3" d="M92.79,324.5c-.86,3,.31,6-2.91,9.49-2.54,2.77-6.8,2.72-10.21,4.66-4.73,2.68-8.69,7.79-15.33,7.79-3.22,0-5.61-2.13-5.61-4.58,0-3.33,3.24-6.35,7.18-9.06-.23.38-2.21,2.16-.79,3.62s3.68,1.06,4.86.61C75.4,335,85.4,331.38,92.79,324.5Z"/><path class="cls-11" d="M176.45,352.29c0,3-3.4,5.9-6.4,5.9-10.07,0-9.88-6.25-10.74-15.14,1.79,5.2,4.05,9,9.23,7.95,4.73-.93,5.56-4.45,5.56-7.92A26.77,26.77,0,0,1,176.45,352.29Z"/><path class="cls-12" d="M217,213.39h2.07a.17.17,0,0,1,.17.17v1.76a0,0,0,0,1,0,0h-2.41a0,0,0,0,1,0,0v-1.76A.17.17,0,0,1,217,213.39Z"/><path class="cls-12" d="M214.49,213.39h2.07a.17.17,0,0,1,.17.17v1.76a0,0,0,0,1,0,0h-2.41a0,0,0,0,1,0,0v-1.76A.17.17,0,0,1,214.49,213.39Z"/><path class="cls-12" d="M211.95,213.39H214a.17.17,0,0,1,.17.17v1.76a0,0,0,0,1,0,0h-2.41a0,0,0,0,1,0,0v-1.76A.17.17,0,0,1,211.95,213.39Z"/><path class="cls-12" d="M209.41,213.39h2.07a.17.17,0,0,1,.17.17v1.76a0,0,0,0,1,0,0h-2.41a0,0,0,0,1,0,0v-1.76A.17.17,0,0,1,209.41,213.39Z"/><path class="cls-12" d="M206.88,213.39h2.07a.17.17,0,0,1,.17.17v1.76a0,0,0,0,1,0,0h-2.41a0,0,0,0,1,0,0v-1.76A.17.17,0,0,1,206.88,213.39Z"/><path class="cls-12" d="M204.34,213.39h2.07a.17.17,0,0,1,.17.17v1.76a0,0,0,0,1,0,0h-2.41a0,0,0,0,1,0,0v-1.76A.17.17,0,0,1,204.34,213.39Z"/><path class="cls-12" d="M201.8,213.39h2.07a.17.17,0,0,1,.17.17v1.76a0,0,0,0,1,0,0h-2.41a0,0,0,0,1,0,0v-1.76A.17.17,0,0,1,201.8,213.39Z"/><path class="cls-12" d="M199.27,213.39h2.07a.17.17,0,0,1,.17.17v1.76a0,0,0,0,1,0,0H199.1a0,0,0,0,1,0,0v-1.76A.17.17,0,0,1,199.27,213.39Z"/><path class="cls-12" d="M196.73,213.39h2.07a.17.17,0,0,1,.17.17v1.76a0,0,0,0,1,0,0h-2.41a0,0,0,0,1,0,0v-1.76A.17.17,0,0,1,196.73,213.39Z"/><path class="cls-12" d="M194.19,213.39h2.07a.17.17,0,0,1,.17.17v1.76a0,0,0,0,1,0,0H194a0,0,0,0,1,0,0v-1.76A.17.17,0,0,1,194.19,213.39Z"/><path class="cls-12" d="M191.66,213.39h2.07a.17.17,0,0,1,.17.17v1.76a0,0,0,0,1,0,0h-2.41a0,0,0,0,1,0,0v-1.76A.17.17,0,0,1,191.66,213.39Z"/><path class="cls-12" d="M189.12,213.39h2.07a.17.17,0,0,1,.17.17v1.76a0,0,0,0,1,0,0h-2.41a0,0,0,0,1,0,0v-1.76A.17.17,0,0,1,189.12,213.39Z"/><path class="cls-12" d="M186.58,213.39h2.07a.17.17,0,0,1,.17.17v1.76a0,0,0,0,1,0,0h-2.41a0,0,0,0,1,0,0v-1.76A.17.17,0,0,1,186.58,213.39Z"/><path class="cls-12" d="M184,213.39h2.07a.17.17,0,0,1,.17.17v1.76a0,0,0,0,1,0,0h-2.41a0,0,0,0,1,0,0v-1.76A.17.17,0,0,1,184,213.39Z"/><path class="cls-12" d="M181.51,213.39h2.07a.17.17,0,0,1,.17.17v1.76a0,0,0,0,1,0,0h-2.41a0,0,0,0,1,0,0v-1.76A.17.17,0,0,1,181.51,213.39Z"/><path class="cls-12" d="M179,213.39H181a.17.17,0,0,1,.17.17v1.76a0,0,0,0,1,0,0H178.8a0,0,0,0,1,0,0v-1.76A.17.17,0,0,1,179,213.39Z"/><path class="cls-12" d="M176.44,213.39h2.07a.17.17,0,0,1,.17.17v1.76a0,0,0,0,1,0,0h-2.41a0,0,0,0,1,0,0v-1.76A.17.17,0,0,1,176.44,213.39Z"/><path class="cls-12" d="M173.9,213.39H176a.17.17,0,0,1,.17.17v1.76a0,0,0,0,1,0,0h-2.41a0,0,0,0,1,0,0v-1.76A.17.17,0,0,1,173.9,213.39Z"/><path class="cls-12" d="M171.36,213.39h2.07a.17.17,0,0,1,.17.17v1.76a0,0,0,0,1,0,0h-2.41a0,0,0,0,1,0,0v-1.76A.17.17,0,0,1,171.36,213.39Z"/><path class="cls-12" d="M168.83,213.39h2.07a.17.17,0,0,1,.17.17v1.76a0,0,0,0,1,0,0h-2.41a0,0,0,0,1,0,0v-1.76A.17.17,0,0,1,168.83,213.39Z"/><path class="cls-12" d="M166.29,213.39h2.07a.17.17,0,0,1,.17.17v1.76a0,0,0,0,1,0,0h-2.41a0,0,0,0,1,0,0v-1.76A.17.17,0,0,1,166.29,213.39Z"/><path class="cls-12" d="M163.75,213.39h2.07a.17.17,0,0,1,.17.17v1.76a0,0,0,0,1,0,0h-2.41a0,0,0,0,1,0,0v-1.76A.17.17,0,0,1,163.75,213.39Z"/><path class="cls-12" d="M161.22,213.39h2.07a.17.17,0,0,1,.17.17v1.76a0,0,0,0,1,0,0H161a0,0,0,0,1,0,0v-1.76A.17.17,0,0,1,161.22,213.39Z"/><path class="cls-12" d="M158.68,213.39h2.07a.17.17,0,0,1,.17.17v1.76a0,0,0,0,1,0,0h-2.41a0,0,0,0,1,0,0v-1.76A.17.17,0,0,1,158.68,213.39Z"/><path class="cls-12" d="M156.14,213.39h2.07a.17.17,0,0,1,.17.17v1.76a0,0,0,0,1,0,0H156a0,0,0,0,1,0,0v-1.76A.17.17,0,0,1,156.14,213.39Z"/><path class="cls-12" d="M153.61,213.39h2.07a.17.17,0,0,1,.17.17v1.76a0,0,0,0,1,0,0h-2.41a0,0,0,0,1,0,0v-1.76A.17.17,0,0,1,153.61,213.39Z"/><path class="cls-12" d="M151.07,213.39h2.07a.17.17,0,0,1,.17.17v1.76a0,0,0,0,1,0,0H150.9a0,0,0,0,1,0,0v-1.76A.17.17,0,0,1,151.07,213.39Z"/><path class="cls-12" d="M148.53,213.39h2.07a.17.17,0,0,1,.17.17v1.76a0,0,0,0,1,0,0h-2.41a0,0,0,0,1,0,0v-1.76A.17.17,0,0,1,148.53,213.39Z"/><path class="cls-12" d="M146,213.39h2.07a.17.17,0,0,1,.17.17v1.76a0,0,0,0,1,0,0h-2.41a0,0,0,0,1,0,0v-1.76A.17.17,0,0,1,146,213.39Z"/><path class="cls-12" d="M143.46,213.39h2.07a.17.17,0,0,1,.17.17v1.76a0,0,0,0,1,0,0h-2.41a0,0,0,0,1,0,0v-1.76A.17.17,0,0,1,143.46,213.39Z"/><path class="cls-12" d="M140.92,213.39H143a.17.17,0,0,1,.17.17v1.76a0,0,0,0,1,0,0h-2.41a0,0,0,0,1,0,0v-1.76A.17.17,0,0,1,140.92,213.39Z"/><path class="cls-12" d="M138.38,213.39h2.07a.17.17,0,0,1,.17.17v1.76a0,0,0,0,1,0,0h-2.41a0,0,0,0,1,0,0v-1.76A.17.17,0,0,1,138.38,213.39Z"/><rect class="cls-2" x="134.6" y="210.06" width="3.29" height="6.67" transform="translate(-53.13 45.36) rotate(-15.86)"/><rect class="cls-2" x="193.46" y="210.06" width="3.29" height="6.67" transform="translate(-50.9 61.45) rotate(-15.86)"/><path class="cls-13" d="M127.49,178.48l9.13,34.13h63.17a.83.83,0,0,0,.8-1l-8.72-34.09A2,2,0,0,0,190,176H129.37A2,2,0,0,0,127.49,178.48Z"/><path class="cls-2" d="M124.24,178.48l9,33.52a.82.82,0,0,0,.8.61h62.52a.82.82,0,0,0,.8-1l-8.72-34.09a1.94,1.94,0,0,0-1.88-1.46H126.12A2,2,0,0,0,124.24,178.48Z"/><path class="cls-13" d="M224.66,219.3H134.39a.89.89,0,0,1-.89-.9v-2.7a.89.89,0,0,1,.89-.89h90.27a2.25,2.25,0,1,1,0,4.49Z"/><path class="cls-2" d="M133.89,214.81H197.6a0,0,0,0,1,0,0v4.49a0,0,0,0,1,0,0H133.89a.39.39,0,0,1-.39-.39v-3.72A.39.39,0,0,1,133.89,214.81Z"/><path class="cls-13" d="M164.19,196.78a4.48,4.48,0,1,1-4.48-4.48A4.47,4.47,0,0,1,164.19,196.78Z"/><path class="cls-14" d="M127.15,544.63l-.17,2s4.73,4.22,13.36,3.72,12-2.49,16.07-2.1,7.74.62,8.9.27c0,0,.45-1.77.75-2.84l-18.84-3.21-16.85,1.16-3,1Z"/><path class="cls-14" d="M165.56,534c.38,3.1,1.07,6.39,1,9.52,0,0,0,.09,0,.13a8.43,8.43,0,0,1-.65,2.47c-2.13,2.28-8.92,1-11.6,1.22-7.42.5-11.63,2.12-16.27,1.72-3.08-.26-6.34-1.41-10.87-4.38,0-.35,0-.68,0-1,.76-8.85,12.34-3.67,17.78-7.17,2.5-1.6,5.05-6.75,7.21-6.57C156.85,530.29,160.94,533.26,165.56,534Z"/><path class="cls-14" d="M185.15,549.3l.57,1.94s5.95,2.21,13.8-1.41,10.25-6.68,14.2-7.81,7.43-2.23,8.39-3c0,0-.23-1.81-.34-2.92L203.06,540l-15.28,7.23-2.45,2.06Z"/><path class="cls-14" d="M217,525.36c1.49,2.75,3.33,5.56,4.4,8.51a.93.93,0,0,0,0,.13,8.63,8.63,0,0,1,.29,2.53c-1.15,2.9-7.93,4.22-10.36,5.36-6.73,3.17-10.06,6.22-14.52,7.54-3,.87-6.43,1-11.72-.13-.13-.32-.24-.64-.33-.94-2.52-8.52,10.16-7.91,14-13.15,1.74-2.41,2.24-8.14,4.32-8.75C207.58,525.13,212.47,526.4,217,525.36Z"/><path class="cls-8" d="M282,438.43c-2.56,18.77-10.3,22.52-28.2,23.68-15.57,1-42.8,1.1-48,1.44,0,0,6.41,5.72,9.67,20.25,3.47,15.46.17,29.42,3.55,43.66,0,0-5.95,3-7.73,3.35-5.11.87-8.68,1.61-11.48.25-1.83-17.88.75-29.72-6.08-44.37-4.17-8.95-8.74-16.26-10.36-21.41-5.17-16.45,2.52-19.42,6.58-21.32,7.8-3.64,23.56-3.27,48.12-8.17,4.42-.87,23.26-4.46,28.81-4.82a3.79,3.79,0,0,1,1.06,0C272.79,432.19,277.66,435.77,282,438.43Z"/><path class="cls-5" d="M283.21,454.11c-3.77,18.57-10.07,24.48-28,24.48-15.61,0-50.35-.76-55.57-.76a64.42,64.42,0,0,1-7.38,15.45c-7.94,12.14-14.89,26-23.3,46.2,0,0-10.2-1.4-12-1.74-8.37-1.62-9.19-4-11.89-5.59,6.3-9.19,19.21-31.48,23.13-40.2,10.36-23.06,17.05-32.66,22.51-34.85,8.86-3.57,24-5.17,48.81-8.46,4.46-.59,23.5-2.95,29-2.95a3.68,3.68,0,0,1,1.06.11C274.46,447.3,279.09,451.18,283.21,454.11Z"/><path class="cls-13" d="M221.32,362.68a2.51,2.51,0,0,1,0,.27,158.54,158.54,0,0,0,3.11,15.67,140,140,0,0,0,9.33,25.93c1.19,2.5,2.33,4.74,3.36,6.73,2.85,5.45,4.91,9,5,11.18.08,2.58-.84,5.11-3.1,7.85l-.38.46-.72.79a55.27,55.27,0,0,1-9.81,7.73l2.1,1,.29.15a77.28,77.28,0,0,1,9.26,5.47c1.8,1.23,3.6,2.53,5.57,3.93,1.73,1.24,3.6,2.57,5.73,4l1.46,1,.79.52a263.26,263.26,0,0,0,26.2,15c4.44-5.17,6.32-20.75,2.4-33.15-.22-.69-.46-1.38-.71-2.08-1.17-3.36-2.52-7-4-10.89-3.08-8.3-7.06-17.3-7.63-31.05-.38-9.12,1.36-15.58,5.16-24.39.6-1.4,1.26-2.86,2-4.4-5.43-2.19-11.77-4.37-18-6.84l-1.14-.46c-2.23-.91-4.44-1.87-6.55-2.88a63.22,63.22,0,0,1-8.85-5l-.24-.17c-1.64.89-3.59,1.86-5.63,2.9l-.55.28c-2.72,1.38-5.55,2.86-8,4.36-.5.31-1,.61-1.41.91l-.18.11-.84.6-.1.07a13.67,13.67,0,0,0-3.38,3.22,5.7,5.7,0,0,0-.34.57A4.36,4.36,0,0,0,221.32,362.68Z"/><path class="cls-9" d="M225.29,358.28a78.85,78.85,0,0,0,4.22,8.6c3.9,7,8.74,14.37,11.73,20.67,3.08-10.59,10-15.65,14.25-21.82a18.26,18.26,0,0,0,3.28-8.17l-1.14-.46c-2.23-.91-4.44-1.87-6.55-2.88a63.22,63.22,0,0,1-8.85-5l-.24-.17c-1.64.89-3.59,1.86-5.63,2.9l-.55.28a94.76,94.76,0,0,0-9.4,5.27l-.18.11C225.9,357.83,225.59,358.05,225.29,358.28Z"/><path class="cls-9" d="M241.43,446.36c1.34,1.1,14.71,16.59,14.72,16.61a12.27,12.27,0,0,1,1.36,4.26c.51,1.85,1.33,4.78,1.37,5.25.2,2.47-.28,6.86-2.79,7.06h-.17a.76.76,0,0,1-.76-.5l-.07-.21c-.57.78-.81,1.51-1.83,1.76a1.45,1.45,0,0,1-1.55-.64,3.18,3.18,0,0,1-.17-.27c-.71,1.2-1.32,1.7-1.85,1.75-1.2.09-2-2.13-2.65-3.85-.24.23-1.14,1.15-1.6,1.19-2,.16-4.56-7-5-12.32-.27-3.42.79-4,.62-6-.27-3.37-6.59-8.33-8.74-10.13A87.69,87.69,0,0,1,241.43,446.36Z"/><path class="cls-3" d="M240.23,307.53c.32,0,.62,0,.93,0,11.87,0,12.36,14.32,16.19,22.68a12.41,12.41,0,0,1-3.23-3.15c0,.24,0,.48,0,.72,0,3.13.49,6.22.49,9.33,0,.73,0,1.45-.09,2.18a33,33,0,0,0-1.38-4.57c-.75,3.53-1.88,7-1.88,10.63,0,.22,0,.44,0,.66a26.4,26.4,0,0,1-.88-3.16,116.39,116.39,0,0,0-3,14.84c-16-2.37-18.15-9.78-25.35-15.47A10.84,10.84,0,0,0,221,347a18.79,18.79,0,0,0,.3,3.11c-1.46-2.56-1.82-5.42-2.46-8.27-.37,1.62-.65,3.26-1.08,4.87.05-.81.07-1.61.07-2.41,0-2.29-.16-4.55-.16-6.83a29.7,29.7,0,0,1,.23-4c-.14,2.77-.33,5.68-1.58,8.2a13.1,13.1,0,0,1-.12-1.86,50.46,50.46,0,0,1,.72-6.46,13.92,13.92,0,0,1-3.15,3.71c.25-1.44.73-2.84.93-4.29a2.76,2.76,0,0,1-.5.74,16.56,16.56,0,0,1-.62-4.58c0-.79,0-1.59.13-2.43a34.86,34.86,0,0,0-1.88,5.52c.28-16.61,10.92-26,22.45-26A11.14,11.14,0,0,1,240.23,307.53Z"/><path class="cls-9" d="M229.53,347.35c0,2.7,2,8.81,4.26,14.68a128,128,0,0,0,5.77,13.17c5.2-4.54,10.88-8.89,14.8-14.59a73.89,73.89,0,0,1-6.63-15.23,83.76,83.76,0,0,1-2.93-12.63c-4.32,4.17-13.15,7.78-15.15,13.69A2.86,2.86,0,0,0,229.53,347.35Z"/><path class="cls-5" d="M229.38,440.84c.83.39,1.63.77,2.39,1.15a74,74,0,0,1,9.26,5.47c1.8,1.23,3.6,2.52,5.57,3.93,1.23.88,2.53,1.8,3.94,2.78l.54-.33,1.46,1,.79.52c-.68-1.5-1.42-3-2.19-4.54-1.89-3.75-4-7.48-6-10.95-.85-1.44-1.68-2.84-2.49-4.17s-1.6-2.63-2.33-3.83l-.39.46-.72.79-.11.11a52.87,52.87,0,0,1-8.85,7.06C230,440.47,229.67,440.66,229.38,440.84Z"/><path class="cls-13" d="M212.13,417.14c0,4.41,3.54,11.81,8,19.25,2,3.38,4.21,6.77,6.33,9.89.44.64.87,1.27,1.3,1.88.74,1.07,1.47,2.09,2.18,3.07,3.9,5.4,7,9.16,7.42,9.16,4.33,0,9.4-3.81,13.22-6.22l.54-.33.34-.21c-1.18-2.46-2.56-5-4-7.52-.67-1.15-1.36-2.3-2.07-3.44-1.52-2.44-3.09-4.84-4.62-7.11-.54-.8-1.07-1.58-1.6-2.34-.38-.57-.77-1.12-1.14-1.66l-1.24-1.78c-3.34-4.78-6-8.47-6.78-10a1.52,1.52,0,0,1-.21-.68,25.15,25.15,0,0,1,.43-2.8A50.44,50.44,0,0,1,232,410c.27-.8.55-1.6.84-2.43s.63-1.85.94-2.82c0-.08.05-.15.07-.22a46.27,46.27,0,0,0,2.32-14.48c0-6.57-2.48-14.71-6-22.07-2.57-5.4-3.41-8-2.32-11.41-.47.31-1.89,1.23-2.43,1.62l-.1.07a13.67,13.67,0,0,0-3.38,3.22,3.17,3.17,0,0,1-.34.57,4.24,4.24,0,0,0-.51.89C216.28,376.69,212.13,415.05,212.13,417.14Z"/><path class="cls-6" d="M229.53,347.35c0,2.7,2,8.81,4.26,14.68,6.06-3.32,10.41-10,12-20.31-1.31-4.18-.37-4.8-1-9-4.32,4.17-13.15,7.78-15.15,13.69A2.86,2.86,0,0,0,229.53,347.35Z"/><path class="cls-9" d="M218.48,319.18c-.41,7,1.24,12.05,1.24,16.42,0,7.71,2,13.12,10.83,22.63a25.55,25.55,0,0,0,15.25-16.51c3.94-.83,5.54-3.78,5.54-6,0-1.41-.66-2.49-1.79-2.49-.77,0-1.77.51-2.92,1.79,0-.92,0-1.82,0-2.7,0-14.92-7.55-20.58-16.34-20.58a9.64,9.64,0,0,0-5,1.32C223,314.5,219.53,314.51,218.48,319.18Z"/><path class="cls-3" d="M237.08,309.4c11.08,4.28,11.45,11.81,11.45,19.91,0,2.12-.41,5.7-4,9.85-.19-6.41-1-10.8-2.14-13.15,1,6.94.31,11.35-4,16.27a29.53,29.53,0,0,0,1.27-8.52,22.29,22.29,0,0,0-5.17-14.92c-1,9.45-1,13-8.63,19.78a24,24,0,0,0,1-3c-1.94,2.33-3.6,4.8-6.14,6.51,2.51-3.28,4-6.11,4-10.17,0-.29,0-.58,0-.89-1.08,1.28-2.09,2.61-3.2,3.87-.2-.76-.35-1.52-.48-2.28a32.61,32.61,0,0,0-.72,9.08c-3-4.17-5.3-8.9-5.3-13.22,0-9.76,6.82-19.76,18.74-19.76C234.49,308.76,236.32,309.33,237.08,309.4Z"/><path class="cls-5" d="M229.51,366.88c3.9,7,8.74,14.37,11.73,20.67,3.08-10.59,10-15.65,14.25-21.82A45.05,45.05,0,0,1,241.12,368,66.94,66.94,0,0,1,229.51,366.88Z"/><path class="cls-5" d="M230.2,394.82a61.86,61.86,0,0,0,2.59,12.77c.32-.92.63-1.85.94-2.82a.71.71,0,0,1,.07-.22A101.5,101.5,0,0,1,230.2,394.82Z"/><path class="cls-5" d="M229.92,419.75a1.52,1.52,0,0,1-.21-.68,25.15,25.15,0,0,1,.43-2.8,43.07,43.07,0,0,0-7-1.68,25.4,25.4,0,0,1,3.43,1.88,12.79,12.79,0,0,0-2.22-.18,18.81,18.81,0,0,0-6.24,1.18A31.91,31.91,0,0,1,229.92,419.75Z"/><path class="cls-6" d="M196.25,431c-.42-1.08-1.79-3.84-1.79-5.77,0-1,.55-2,1.35-2,1.5,0,13.64,6.67,13.64,13.07,0,1.21-1.56,1.63-2.8,1.63a7.36,7.36,0,0,1-2-.29A15,15,0,0,1,196.25,431Z"/><polygon class="cls-3" points="180.98 403.24 187.47 373.78 216.61 416.85 180.98 403.24"/><polygon class="cls-11" points="228.54 413.47 206.02 376.3 180.98 403.24 207.55 442.1 228.54 413.47"/><path class="cls-9" d="M233.8,446.05a52.84,52.84,0,0,1-14.25,2.54c-1.91,0-21.27-9.07-21.29-9.08-1.93-1.44-3.58-5.45-4.21-7.88a53.5,53.5,0,0,0-1.81-5.82,13.27,13.27,0,0,1-.73-3.4c0-.45.72-1,1.12-1,3.4,0,2.36,4.06,3.83,7.36a18.35,18.35,0,0,0,3.16,4,8.27,8.27,0,0,0,4.58,1.59c4.18,0,5.12-1.67,7-1.67,4.2,0,6.21,8.55,11.56,8.55.35,0,4.15-2.28,4.49-2.28,1.11,0,3.31,3.56,3.62,4.14Z"/><path class="cls-9" d="M215.54,435.72s-9.33-11.9-11.77-11.9a1.23,1.23,0,0,0-1.33,1.38c0,2.17,4.19,4.92,4.19,7.78,0,1.29-1,2.32-3.56,3.12,3.06.62,7.73,1.9,11.07,1.9h.63C214.82,437.72,215.46,436,215.54,435.72Z"/><path class="cls-5" d="M225.21,443.21a32.61,32.61,0,0,0,1.21,3.07c1.2,1.75,2.37,3.42,3.48,5,1.64-.05,5.24-1.75,14.07-4.25l3.4-.87c9.92-2.59,25-6.95,32.75-11.05-.23-.68.8.18,1.1.07,5.2-1.81,8.34-4,9.51-7.71a14.05,14.05,0,0,0,0-2.34c-.37-4.54-2.52-10-3.27-13.25-1.94-8.31-3.4-35.77-12.7-43a7.83,7.83,0,0,0-5.63-1.75c-.42,0,.63,11.85.63,11.85-8.77,3.41-3.8,32.64-3.11,40.89.08.92,1.09,1.53,1.3,2.41-12.45,6.16-21.15,10.4-27.27,13.36l-10.16,4.87C226.74,442.24,225.9,442.66,225.21,443.21Z"/><path class="cls-5" d="M220.09,436.39c2,3.38,4.21,6.77,6.33,9.89.44.64.87,1.27,1.3,1.88,3.82-1.33,7.46-2.5,10.92-3.55,2.3-.7,4.52-1.34,6.66-1.94-1.52-2.44-3.09-4.84-4.62-7.11-.54-.8-1.07-1.58-1.6-2.34-.38-.57-.77-1.12-1.14-1.66l-.28-.41C227.68,434.08,222.27,435.26,220.09,436.39Z"/><path class="cls-13" d="M219.29,438.89c.71,2,1.05,2.64,3.69,5.88,1.51,1.84,3.93,2.87,5.43,4.84q6-2.08,11.37-3.71c19.36-5.87,33.07-7.84,41.44-10.77,5.2-1.81,8.34-4,9.51-7.71a12.43,12.43,0,0,0,.52-3.76c0-4.55-1.68-10.21-2.17-13.47-1.4-9.36-.31-42.2-12.39-45.8a7.91,7.91,0,0,0-2.26-.32,10.47,10.47,0,0,0-2.87.43,18.61,18.61,0,0,0-2.56,1.65c-.46.36-.9.74-1.32,1.13a17.15,17.15,0,0,0-5.38,12.4v.18c0,13,4.48,26.82,6.49,39.08l-1.53.61c-13.39,5.32-22.43,8.84-28.6,11.22C223.48,436.62,221.68,437.14,219.29,438.89Z"/><path class="cls-5" d="M267.25,417.56a18.54,18.54,0,0,1,8.31,5.14c-1.77-1.09-3.64-2.57-5.71-3.05a40.2,40.2,0,0,1,2.73,3.74C270.76,421.53,267.92,420,267.25,417.56Z"/><path class="cls-5" d="M403.42,422.23c2.66-2.12,5.57-4.71,5.58-8.11a2.39,2.39,0,0,0-1.07-2.24,3.35,3.35,0,0,1-.83-.4c-.48-.45-.23-1.23,0-1.82a19.76,19.76,0,0,0,1.54-7.92,3.56,3.56,0,0,0-.42-1.88c-.27-.41-.67-.7-1-1.08-1.35-1.73,0-4.17,1.12-6a32.84,32.84,0,0,0,4.79-16.42,3.45,3.45,0,0,0-.78-2.7c-.72-.65-2.22-.27-2.15.7-1.05-2.95-.05-6.36-1.21-9.26a6.75,6.75,0,0,0-5.2-4.09,2.8,2.8,0,0,0-1.52.13,3.3,3.3,0,0,0-1.26,1.28,25.93,25.93,0,0,0-3.9,10.49c-.08.56-.37,1.3-.92,1.18a1.32,1.32,0,0,1-.52-.36c-1.32-1.16-3.55-.46-4.58,1a9.6,9.6,0,0,0-1.34,5,13.05,13.05,0,0,0-7.09-3,5.06,5.06,0,0,0-3.49.64c-2.1,1.5-1.55,4.76-.46,7.1s2.56,4.95,1.57,7.33a10.57,10.57,0,0,0-3.55.07,3.53,3.53,0,0,0-2.58,2.23c-.61,2.14,1.54,3.93,2.91,5.69a9.38,9.38,0,0,1,1.91,6.68,2.65,2.65,0,0,0-3.69,1.52c-.46,1.64.77,3.24,2,4.37s2.75,2.29,3,4c.25,1.5-.56,3-.28,4.53.46,2.39,3.4,3.51,4.3,5.77s-.62,4.87.63,6.9c1.47,2.38,3.43.67,5.06-.62C394.57,429.29,399,425.75,403.42,422.23Z"/><path class="cls-5" d="M373,434.14c.33.26-.42.46-.74.21a57.93,57.93,0,0,1-14.95-18.06,3.26,3.26,0,0,1-.48-1.37,2.36,2.36,0,0,1,2-2.19,7,7,0,0,1,3.16.29c.23-4-3.52-7.06-4.66-10.9a1.62,1.62,0,0,1-.05-1,1.23,1.23,0,0,1,1.59-.52,3.55,3.55,0,0,1,1.37,1.22,15.13,15.13,0,0,1-2.7-7,3.89,3.89,0,0,1,3.45-4.43,21.2,21.2,0,0,1,5.17-19.12,2.2,2.2,0,0,1,1.7-.9c.94.11,1.34,1.25,1.5,2.18a68.61,68.61,0,0,1,.9,16.93c2.23-.92,4.75,1.18,5.28,3.53s-.27,4.77-.91,7.1a3.55,3.55,0,0,0,.13,3.08,6.08,6.08,0,0,0,1.27,1c3.09,2.4,1.78,7.25.35,10.88a6.38,6.38,0,0,0-.6,2.52c.06,1.33.92,2.47,1.41,3.7C379.16,426.33,376.75,430.23,373,434.14Z"/><path class="cls-5" d="M376.33,436c-.26.11.21.38.46.26a39.88,39.88,0,0,0,13.1-9.54,2.3,2.3,0,0,0,.56-.83,1.64,1.64,0,0,0-.95-1.81,4.77,4.77,0,0,0-2.16-.34c.53-2.72,3.56-4.13,5-6.51a1.07,1.07,0,0,0,.21-.68.85.85,0,0,0-1-.63,2.51,2.51,0,0,0-1.13.59,10.52,10.52,0,0,0,3-4.23,2.69,2.69,0,0,0-1.56-3.56,14.64,14.64,0,0,0-.19-13.69c-.23-.4-.53-.83-1-.89-.65-.09-1.11.61-1.38,1.2a47.73,47.73,0,0,0-3.49,11.18c-1.34-1-3.38,0-4.14,1.47s-.63,3.24-.6,4.91a2.48,2.48,0,0,1-.62,2,4,4,0,0,1-1,.48c-2.47,1.08-2.42,4.55-2.09,7.23a4.27,4.27,0,0,1,0,1.78,7.94,7.94,0,0,1-1.58,2.24C373.51,429.73,374.46,432.75,376.33,436Z"/><polygon class="cls-3" points="394.42 470.94 367.43 470.94 362.69 434.46 399.16 434.46 394.42 470.94"/><polygon class="cls-3" points="398.67 438.22 363.18 438.22 362.85 435.71 399 435.71 398.67 438.22"/><path class="cls-3" d="M399.1,436.31H362.76a2.67,2.67,0,1,1,0-5.33H399.1a2.67,2.67,0,0,1,0,5.33Z"/><path class="cls-15" d="M594.94,379a1.54,1.54,0,0,1-.33-2.16l1.25-1.7a1.55,1.55,0,1,1,2.5,1.83l-1.25,1.7A1.55,1.55,0,0,1,594.94,379Z"/><path class="cls-8" d="M599.54,321.13a71.9,71.9,0,0,1,.77,11.58c0,2.75-.07,5.46-.07,8.15,0,27.18,12.09,23,12.09,48.38,0,10.31-2.54,20.33-4.65,30.6a78.47,78.47,0,0,1-1.68-9.26,7.64,7.64,0,0,1-5.72,2.29c-.62,0-1.26,0-1.92,0-2.23,0-4.83.37-8.78,3.64-4.85-3.94-6.17-11.29-6.17-19.09s1.29-15.86,1.72-21.6a62.93,62.93,0,0,0-7.59,14.91c-8.37-5.79-14.31-16.25-14.31-26.62,0-9,4.74-14.73,4.74-24.75,0-1.66-.07-3.41-.07-5.15,0-9.73,3.16-15.3,14.73-15.3C588.41,318.88,594.77,320.35,599.54,321.13Z"/><path class="cls-9" d="M589.83,362.34a73.65,73.65,0,0,1-8.89-.51,39.81,39.81,0,0,1-9.36-2.32,19.13,19.13,0,0,0,3.77-9.68,37.36,37.36,0,0,0,.27-4.13c.08-4.69-.52-9.5-.52-13.76a13.78,13.78,0,0,0,3.19.78c3.82.49,8-.28,11.67-.3a38.65,38.65,0,0,0-1.12,5.46c-.1.81-.18,1.62-.23,2.44C588.09,347.61,589.36,354.8,589.83,362.34Z"/><path class="cls-16" d="M587.14,562.11s-1.34,13.61,9.11,12.67c1.86-.17,5.56-2,4-10.35L593.45,561Z"/><path class="cls-16" d="M528.58,554.83s-4.26,11.75,1.67,13.24c6.44,1.61,10-6.49,10.84-10.41l-8.5-2.83Z"/><path class="cls-16" d="M589.55,524.92s2-1.72,6.29-1.42,6.94.9,7.37,1.75l-8.57,7.1-4.45-4.5Z"/><path class="cls-16" d="M541.27,518.55s4.73-.66,7.57.7,5.89,2.18,5.76,3.45l-9.05,2.84-4.28-4.12Z"/><path class="cls-4" d="M614.24,415c-1.75,4.19-4.34,5.83-8.88,6.41-.48.07-1,.12-1.51.15l-.43,0c-1.51.2-6.38.93-12.32,1.66-11.73,1.45-27.65,2.9-30.2.29-.7-.73,1-5.31,1.83-5.74,10.51-1.86,21-5.62,29.7-8.07,1.77-.5,3.47-.94,5.08-1.3l.32-.08a42.93,42.93,0,0,1,4.5-.77c.19-2.89-1.38-8.65-2.35-13.84-.16-.88-.31-1.75-.43-2.58-2.46-17.42-8.23-25.1-5.45-31.14a20.14,20.14,0,0,1,1.78-3.18c1.69-2.4,4-4.16,7-2.75,7,3.33,7.46,9.24,9.75,27.94C614.19,394.82,616.83,408.84,614.24,415Z"/><path class="cls-10" d="M600,393.8c-.16-.88-.31-1.75-.43-2.58-2.46-17.42-8.23-25.1-5.45-31.14a20.14,20.14,0,0,1,1.78-3.18c5.23,1.49,8.51,3.44,8.57,5.4C605,383.89,603.09,388.59,600,393.8Z"/><path class="cls-4" d="M594,424.4c5.78,7.35,12.24,25.72,12.24,33.25,0,8.46-7.84,13.18-27.15,14.71-23.32,0-42.11,1.79-42.11-20.44,0-13.94,9.37-18.52,16.4-33.55a87.14,87.14,0,0,0,4.6-12.12A102.31,102.31,0,0,0,562,382c.32-7.17-1.06-12.82-1.23-14.92-1.34-16.87,7.62-18,7.62-18a87.23,87.23,0,0,1,16.75.59c11.66,1.18,20.32,4.34,20.41,7.54.71,26.07-2.27,27.51-6.55,35C587,413.1,594,424.4,594,424.4Z"/><path class="cls-4" d="M592.43,409.79a33.1,33.1,0,0,0-1.33,13.52c-11.73,1.45-27.65,2.9-30.2.29-.7-.73,1-5.31,1.83-5.74C573.24,416,583.76,412.24,592.43,409.79Z"/><path class="cls-9" d="M611.23,486.47c-.67,10.83-5.44,23.23-8.94,38.86a150.69,150.69,0,0,0-3.54,24.15c0,.58.88,11.18,1.61,15.52,1.06,6.34-3.22,9.61-6.22,8.37-5.71-1.61-6.5-4.59-5.8-17.86.48-9,1.81-18.73,2.26-26.06.07-1.1.1-2.63.1-4.53,0-7.65-.45-21.32-.78-36.84-.22-10.14.34-18.8-.47-31.15-.19-2.75-.44-5.69-.78-8.86a9.3,9.3,0,0,1,.43-3.3c.93-3.22,3.37-7.31,8.1-8.67,14-4,13.28,10,13.28,10C610.58,458.4,612,473.71,611.23,486.47Z"/><path class="cls-9" d="M548.6,420.22c-3.52,1.17-8.21,3.94-6.22,8a15.55,15.55,0,0,0,1.1,1.83c.27,0,.51,0,.76,0a15.42,15.42,0,0,1,1.66.2c3.19.59,5.06,1.9,10-.54,2.21-1.09,4.28-2.55,6.75-3.77,2.09-1,4.43-.59,7.42-.91a21.88,21.88,0,0,0-1.52-6.23c-.29-.58-.6-1.17-.91-1.79C560.86,418.57,557.11,417.38,548.6,420.22Z"/><path class="cls-9" d="M542.09,427.59s1.35,3.86,3.27,5.13c1.57,1,1.92-.52,1.74-1a3.7,3.7,0,0,0-1.2-1.47l-.16,0-.76-.39-1.81-2.6-.73-1.35Z"/><path class="cls-9" d="M591,450.31a8,8,0,0,1-.2,1.07q-.57,2.79-1.39,5.54c-6.14,20.43-22.73,39.72-36,65.81-2.07,4.09-4.07,8.35-5.93,12.81-1.68,4.05-6,33.06-15.81,31.29-4.72-.86-5.07-7-2.78-13.05,3.33-8.83,8.24-11.77,10.71-23.41q1.29-6,2.58-11.51c10.82-46,21.8-63.68,25.89-69,5.58-7.18,10.46-8.56,16.83-7.34a7.82,7.82,0,0,1,4.14,2.29A7.25,7.25,0,0,1,591,450.31Z"/><path class="cls-10" d="M574,391.31c-9,2.16-9.89-6.68-13.22,17.61a9.13,9.13,0,0,1-2.8-2.67A102.31,102.31,0,0,0,562,382c.1-.25.2-.5.31-.75C564.56,385.94,564.88,389.84,574,391.31Z"/><path class="cls-4" d="M583.84,418.53c-5.66,1.08-24-2.77-35.24-5.07-2.57-.52-4.77-1-6.36-1.25-4.9-.88-5.66-6.38-4.77-11.32.83-4.6,3-9.88,5.42-14.74,2.93-6,10.17-25.9,13.57-30.58a25.87,25.87,0,0,1,4.7-5.11c.87-.7,4.84-1.89,9.52-1.17s.8,5.78.11,9.63c-1.18,6.53-6.46,19.15-12,29.18-2.81,5-5.53,10.63-7.28,13.52,1.67.53,3.41,1.11,5.19,1.71,10,3.4,21.21,7.73,27,9.1C584.07,413.26,584.83,418.34,583.84,418.53Z"/><path class="cls-9" d="M603.42,421.65c-1.51.2-6.38.93-12.32,1.66-11.73,1.45-27.65,2.9-30.2.29-.7-.73,1-5.31,1.83-5.74,10.51-1.86,21-5.62,29.7-8.07,1.77-.5,3.47-.94,5.08-1.3C599.52,409.43,602.68,412.39,603.42,421.65Z"/><path class="cls-8" d="M554.6,522.7c-2.6,6.21-5.2,8.38-7.06,12.84-1.68,4.05-6,33.06-15.81,31.29-4.72-.86-5.07-7-2.78-13.05,3.33-8.83,7.25-11.31,9.72-22.95.86-4,1.25-7.53,2.6-12.28C544.7,520.65,550.62,522.27,554.6,522.7Z"/><path class="cls-8" d="M600.36,565c1.06,6.34-3.22,9.61-6.22,8.37-5.71-1.61-7.6-4.49-6.89-17.76.47-9,1.59-18.27,2-25.6.06-1.09.26-3.19.26-5.09a37.35,37.35,0,0,0,13.66.33,149.68,149.68,0,0,0-3.42,24C599.75,549.86,599.63,560.66,600.36,565Z"/><path class="cls-8" d="M541.27,527.2c.59-3.4,2.26-8.65,5.69-8.65a3.52,3.52,0,0,1,3.19,3.7c0,2-1.86,5-2.84,6.73A17.14,17.14,0,0,1,541.27,527.2Z"/><path class="cls-8" d="M592.44,532.73c-.36-3.43-.18-8.93,3.12-9.87a3.51,3.51,0,0,1,4.07,2.68c.55,1.92-.42,5.31-.89,7.25A16.89,16.89,0,0,1,592.44,532.73Z"/><path class="cls-8" d="M567.94,314.47a38,38,0,0,0-3,14.76c-.16,5,.24,10,.09,15.24-.35,11.37-3.88,15.42-4.12,23.29a19.58,19.58,0,0,0,6.26,15.07l-.18-.66c1.31.64,2.61,1.29,3.95,1.85-1.67-2.95-3.51-5.7-4.59-8.94a34.2,34.2,0,0,0,3.09,2.93,40.22,40.22,0,0,1-3-17.36c.43-14,6.15-31.83,6.19-33.33a5.3,5.3,0,0,0-.05-1C571.92,322.16,568.57,318.78,567.94,314.47Z"/><path class="cls-6" d="M588.84,337.88c-.1.81-.18,1.62-.23,2.44a19.92,19.92,0,0,1-13,5.38c.08-4.69-.52-9.5-.52-13.76a13.78,13.78,0,0,0,3.19.78c3.82.49,8-.28,11.67-.3A38.65,38.65,0,0,0,588.84,337.88Z"/><path class="cls-9" d="M567.18,313.68a21.52,21.52,0,0,1,.71,6.27c-.09,3.09-.76,5.71-.85,8.68-.14,4.62,5.42,13.61,8.64,13.71,11,.33,20.28-10.44,20.58-20.43.29-9.63-8.27-15.36-16.16-15.6a12.9,12.9,0,0,0-2.92.23C572.48,307.51,570.49,310.64,567.18,313.68Z"/><path class="cls-8" d="M597.93,308.38a18.62,18.62,0,0,0-12.67-5.56c-11.61-.35-20.53,5.4-20.9,17.75a28.58,28.58,0,0,0,.16,4c.46-1.08.88-2.16,1.28-3.27.39,1.11.72,2.22,1.06,3.34,1.15-2.77,2.07-5.62,3.24-8.39-.23,1.95-1.06,5.51-1.14,7.48a31.8,31.8,0,0,1,5.32-.05c.37,0,.89,0,1.26,0,1.61-3.64,1.72-8.33,4-11.7-.39,3.63-1.52,7.86-1.74,11.51a7.07,7.07,0,0,1,2.3.15c.91-1.91.94-4.14,1.31-6.2.18,1.85,0,4.33.09,6.18a14,14,0,0,1,4.9,1.4c.78-2,.65-5.48.93-7.56a17.46,17.46,0,0,1,.46,4.68c-.12,4-1.33,7.92-1.45,12-.3,10,6.27,11.62,5.84,26-.31,10.29-.51,21.17-1.57,31.27,2.48-6.5,2.29-11.67,2.51-16.85a69.58,69.58,0,0,1,.15,7,80.49,80.49,0,0,1-2,15.24c6.21-9.16,11.45-21.49,11.79-32.89.31-10.23-3-13.36-2.76-20.59.17-5.33,2.73-11.5,3-20.61C603.45,317,601.93,312.48,597.93,308.38Z"/><path class="cls-9" d="M583.84,418.53c-5.66,1.08-24-2.77-35.24-5.07,2.71-7.25,6.13-9.46,8.06-10.13,10,3.4,21.21,7.73,27,9.1C584.07,413.26,584.83,418.34,583.84,418.53Z"/><path class="cls-9" d="M592.74,413.76c3.27,1.09,7.63,3.67,5.77,7.42a14,14,0,0,1-1,1.71c-.24,0-.47,0-.7,0a13.77,13.77,0,0,0-1.55.18c-3,.55-4.7,1.77-9.3-.5-2.06-1-4-2.37-6.29-3.51-1.94-.95-4.39-.88-7.17-1.18a18.27,18.27,0,0,1,1.69-5.45c.27-.54.54-1.94.84-2.52C581.32,411.38,584.82,411.12,592.74,413.76Z"/><path class="cls-9" d="M598.79,420.62s-1.26,3.59-3,4.76c-1.47,1-1.79-.47-1.62-.91a3.46,3.46,0,0,1,1.11-1.37l.15,0,.71-.36,1.68-2.42.68-1.26Z"/><path class="cls-15" d="M544.86,438.1H547a0,0,0,0,1,0,0v1.58a.14.14,0,0,1-.14.14H545a.14.14,0,0,1-.14-.14V438.1A0,0,0,0,1,544.86,438.1Z" transform="translate(1091.87 877.91) rotate(180)"/><path class="cls-15" d="M547.12,438.1h2.15a0,0,0,0,1,0,0v1.58a.14.14,0,0,1-.14.14h-1.87a.14.14,0,0,1-.14-.14V438.1A0,0,0,0,1,547.12,438.1Z" transform="translate(1096.39 877.91) rotate(180)"/><path class="cls-15" d="M549.38,438.1h2.15a0,0,0,0,1,0,0v1.58a.14.14,0,0,1-.14.14h-1.87a.14.14,0,0,1-.14-.14V438.1A0,0,0,0,1,549.38,438.1Z" transform="translate(1100.91 877.91) rotate(180)"/><path class="cls-15" d="M551.64,438.1h2.15a0,0,0,0,1,0,0v1.58a.14.14,0,0,1-.14.14h-1.87a.14.14,0,0,1-.14-.14V438.1A0,0,0,0,1,551.64,438.1Z" transform="translate(1105.43 877.91) rotate(180)"/><path class="cls-15" d="M553.9,438.1H556a0,0,0,0,1,0,0v1.58a.14.14,0,0,1-.14.14H554a.14.14,0,0,1-.14-.14V438.1A0,0,0,0,1,553.9,438.1Z" transform="translate(1109.95 877.91) rotate(180)"/><path class="cls-15" d="M556.16,438.1h2.15a0,0,0,0,1,0,0v1.58a.14.14,0,0,1-.14.14H556.3a.14.14,0,0,1-.14-.14V438.1A0,0,0,0,1,556.16,438.1Z" transform="translate(1114.47 877.91) rotate(180)"/><path class="cls-15" d="M558.42,438.1h2.15a0,0,0,0,1,0,0v1.58a.14.14,0,0,1-.14.14h-1.87a.14.14,0,0,1-.14-.14V438.1A0,0,0,0,1,558.42,438.1Z" transform="translate(1118.99 877.91) rotate(180)"/><path class="cls-15" d="M560.68,438.1h2.15a0,0,0,0,1,0,0v1.58a.14.14,0,0,1-.14.14h-1.87a.14.14,0,0,1-.14-.14V438.1A0,0,0,0,1,560.68,438.1Z" transform="translate(1123.51 877.91) rotate(180)"/><path class="cls-15" d="M562.94,438.1h2.15a0,0,0,0,1,0,0v1.58a.14.14,0,0,1-.14.14h-1.87a.14.14,0,0,1-.14-.14V438.1A0,0,0,0,1,562.94,438.1Z" transform="translate(1128.03 877.91) rotate(180)"/><path class="cls-15" d="M565.2,438.1h2.15a0,0,0,0,1,0,0v1.58a.14.14,0,0,1-.14.14h-1.87a.14.14,0,0,1-.14-.14V438.1A0,0,0,0,1,565.2,438.1Z" transform="translate(1132.55 877.91) rotate(180)"/><path class="cls-15" d="M567.46,438.1h2.15a0,0,0,0,1,0,0v1.58a.14.14,0,0,1-.14.14H567.6a.14.14,0,0,1-.14-.14V438.1A0,0,0,0,1,567.46,438.1Z" transform="translate(1137.07 877.91) rotate(180)"/><path class="cls-15" d="M569.72,438.1h2.15a0,0,0,0,1,0,0v1.58a.14.14,0,0,1-.14.14h-1.87a.14.14,0,0,1-.14-.14V438.1A0,0,0,0,1,569.72,438.1Z" transform="translate(1141.59 877.91) rotate(180)"/><path class="cls-15" d="M572,438.1h2.15a0,0,0,0,1,0,0v1.58a.14.14,0,0,1-.14.14h-1.87a.14.14,0,0,1-.14-.14V438.1A0,0,0,0,1,572,438.1Z" transform="translate(1146.11 877.91) rotate(180)"/><path class="cls-15" d="M574.24,438.1h2.15a0,0,0,0,1,0,0v1.58a.14.14,0,0,1-.14.14h-1.87a.14.14,0,0,1-.14-.14V438.1A0,0,0,0,1,574.24,438.1Z" transform="translate(1150.64 877.91) rotate(180)"/><path class="cls-15" d="M576.5,438.1h2.15a0,0,0,0,1,0,0v1.58a.14.14,0,0,1-.14.14h-1.87a.14.14,0,0,1-.14-.14V438.1A0,0,0,0,1,576.5,438.1Z" transform="translate(1155.16 877.91) rotate(180)"/><path class="cls-15" d="M578.76,438.1h2.15a0,0,0,0,1,0,0v1.58a.14.14,0,0,1-.14.14H578.9a.14.14,0,0,1-.14-.14V438.1A0,0,0,0,1,578.76,438.1Z" transform="translate(1159.68 877.91) rotate(180)"/><path class="cls-15" d="M581,438.1h2.15a0,0,0,0,1,0,0v1.58a.14.14,0,0,1-.14.14h-1.87a.14.14,0,0,1-.14-.14V438.1A0,0,0,0,1,581,438.1Z" transform="translate(1164.2 877.91) rotate(180)"/><path class="cls-15" d="M583.28,438.1h2.15a0,0,0,0,1,0,0v1.58a.14.14,0,0,1-.14.14h-1.87a.14.14,0,0,1-.14-.14V438.1A0,0,0,0,1,583.28,438.1Z" transform="translate(1168.72 877.91) rotate(180)"/><path class="cls-15" d="M585.54,438.1h2.15a0,0,0,0,1,0,0v1.58a.14.14,0,0,1-.14.14h-1.87a.14.14,0,0,1-.14-.14V438.1A0,0,0,0,1,585.54,438.1Z" transform="translate(1173.24 877.91) rotate(180)"/><path class="cls-15" d="M587.8,438.1H590a0,0,0,0,1,0,0v1.58a.14.14,0,0,1-.14.14h-1.87a.14.14,0,0,1-.14-.14V438.1A0,0,0,0,1,587.8,438.1Z" transform="translate(1177.76 877.91) rotate(180)"/><path class="cls-15" d="M590.06,438.1h2.15a0,0,0,0,1,0,0v1.58a.14.14,0,0,1-.14.14H590.2a.14.14,0,0,1-.14-.14V438.1A0,0,0,0,1,590.06,438.1Z" transform="translate(1182.28 877.91) rotate(180)"/><path class="cls-15" d="M592.33,438.1h2.15a0,0,0,0,1,0,0v1.58a.14.14,0,0,1-.14.14h-1.87a.14.14,0,0,1-.14-.14V438.1A0,0,0,0,1,592.33,438.1Z" transform="translate(1186.8 877.91) rotate(180)"/><path class="cls-15" d="M594.59,438.1h2.15a0,0,0,0,1,0,0v1.58a.14.14,0,0,1-.14.14h-1.87a.14.14,0,0,1-.14-.14V438.1A0,0,0,0,1,594.59,438.1Z" transform="translate(1191.32 877.91) rotate(180)"/><path class="cls-15" d="M596.85,438.1H599a0,0,0,0,1,0,0v1.58a.14.14,0,0,1-.14.14H597a.14.14,0,0,1-.14-.14V438.1A0,0,0,0,1,596.85,438.1Z" transform="translate(1195.84 877.91) rotate(180)"/><path class="cls-15" d="M599.11,438.1h2.15a0,0,0,0,1,0,0v1.58a.14.14,0,0,1-.14.14h-1.87a.14.14,0,0,1-.14-.14V438.1A0,0,0,0,1,599.11,438.1Z" transform="translate(1200.36 877.91) rotate(180)"/><path class="cls-15" d="M601.37,438.1h2.15a0,0,0,0,1,0,0v1.58a.14.14,0,0,1-.14.14H601.5a.14.14,0,0,1-.14-.14V438.1A0,0,0,0,1,601.37,438.1Z" transform="translate(1204.88 877.91) rotate(180)"/><path class="cls-15" d="M603.63,438.1h2.15a0,0,0,0,1,0,0v1.58a.14.14,0,0,1-.14.14h-1.87a.14.14,0,0,1-.14-.14V438.1A0,0,0,0,1,603.63,438.1Z" transform="translate(1209.4 877.91) rotate(180)"/><path class="cls-15" d="M605.89,438.1H608a0,0,0,0,1,0,0v1.58a.14.14,0,0,1-.14.14H606a.14.14,0,0,1-.14-.14V438.1A0,0,0,0,1,605.89,438.1Z" transform="translate(1213.92 877.91) rotate(180)"/><path class="cls-15" d="M608.15,438.1h2.15a0,0,0,0,1,0,0v1.58a.14.14,0,0,1-.14.14h-1.87a.14.14,0,0,1-.14-.14V438.1A0,0,0,0,1,608.15,438.1Z" transform="translate(1218.44 877.91) rotate(180)"/><path class="cls-15" d="M610.41,438.1h2.15a0,0,0,0,1,0,0v1.58a.14.14,0,0,1-.14.14h-1.87a.14.14,0,0,1-.14-.14V438.1A0,0,0,0,1,610.41,438.1Z" transform="translate(1222.96 877.91) rotate(180)"/><path class="cls-15" d="M612.67,438.1h2.15a0,0,0,0,1,0,0v1.58a.14.14,0,0,1-.14.14H612.8a.14.14,0,0,1-.14-.14V438.1A0,0,0,0,1,612.67,438.1Z" transform="translate(1227.48 877.91) rotate(180)"/><path class="cls-15" d="M614.93,438.1h2.15a0,0,0,0,1,0,0v1.58a.14.14,0,0,1-.14.14h-1.87a.14.14,0,0,1-.14-.14V438.1A0,0,0,0,1,614.93,438.1Z" transform="translate(1232 877.91) rotate(180)"/><rect class="cls-17" x="617.36" y="435.13" width="2.93" height="5.94" transform="translate(1094.4 1028.61) rotate(-164.14)"/><rect class="cls-17" x="564.92" y="435.13" width="2.93" height="5.94" transform="translate(991.52 1014.28) rotate(-164.14)"/><path class="cls-7" d="M626.62,407l-8.13,30.41H562.22a.74.74,0,0,1-.72-.92l7.77-30.37a1.73,1.73,0,0,1,1.68-1.3h54A1.73,1.73,0,0,1,626.62,407Z"/><path class="cls-1" d="M629.52,407l-8,29.86a.73.73,0,0,1-.71.55H565.11a.73.73,0,0,1-.71-.92l7.77-30.37a1.73,1.73,0,0,1,1.68-1.3h54A1.73,1.73,0,0,1,629.52,407Z"/><path class="cls-7" d="M538.37,439.35h82.11a.79.79,0,0,1,.79.79v2.42a.79.79,0,0,1-.79.79H538.37a.31.31,0,0,1-.31-.31v-3.37A.31.31,0,0,1,538.37,439.35Z" transform="translate(1159.33 882.71) rotate(180)"/><path class="cls-1" d="M564.48,439.35h56.79a0,0,0,0,1,0,0v4a0,0,0,0,1,0,0H564.48a.32.32,0,0,1-.32-.32v-3.36A.32.32,0,0,1,564.48,439.35Z" transform="translate(1185.44 882.71) rotate(180)"/><path class="cls-2" d="M339.9,102.32l5.37,4.26,5.91-4.68a18.21,18.21,0,0,0,3.73,1l2.59,7.15,6.8-.79.89-7.66a17.72,17.72,0,0,0,3.25-1.84s7,3.32,7,3.32l4.26-5.38-4.8-6a18.54,18.54,0,0,0,1-3.55l7.25-2.62-.79-6.81-7.55-.87A18.38,18.38,0,0,0,373,74.39l3.2-6.82-5.38-4.25L365,67.91a18,18,0,0,0-3.94-1.19l-2.49-6.88-6.81.79-.83,7.17a18.17,18.17,0,0,0-3.76,2.07l-6.51-3.05-4.25,5.37,4.46,5.64A18.4,18.4,0,0,0,339.71,82l-6.79,2.45.79,6.81,7.27.84A18.18,18.18,0,0,0,343,95.63Zm12.84-21.56a6.75,6.75,0,1,1,1.1,9.48A6.74,6.74,0,0,1,352.74,80.76Z"/><path class="cls-4" d="M366.66,138.74l3.17,2.51,3.49-2.76a10.77,10.77,0,0,0,2.21.59l1.52,4.23,4-.47.52-4.53a10.42,10.42,0,0,0,1.92-1.09s4.12,2,4.12,2l2.51-3.17-2.83-3.58a11.49,11.49,0,0,0,.6-2.1l4.28-1.54-.46-4-4.46-.51a11,11,0,0,0-1.09-2l1.89-4-3.17-2.51-3.43,2.71a10.6,10.6,0,0,0-2.33-.7l-1.47-4.06-4,.46-.49,4.24a10.93,10.93,0,0,0-2.22,1.22l-3.85-1.8-2.51,3.17,2.64,3.34a10.58,10.58,0,0,0-.69,2.44l-4,1.45.46,4,4.3.5a11,11,0,0,0,1.21,2.1ZM374.24,126a4,4,0,1,1,.65,5.6A4,4,0,0,1,374.24,126Z"/><path class="cls-3" d="M393.09,109.57l2.07,1.64,2.27-1.8a6.42,6.42,0,0,0,1.43.38l1,2.75,2.62-.3.34-2.95a6.71,6.71,0,0,0,1.25-.71s2.68,1.28,2.68,1.28l1.63-2.07-1.84-2.32a7.15,7.15,0,0,0,.39-1.37l2.79-1-.3-2.62-2.91-.34a7.2,7.2,0,0,0-.7-1.31L407,96.21,405,94.58l-2.23,1.76a7.5,7.5,0,0,0-1.51-.46l-1-2.64-2.61.3-.32,2.76a6.65,6.65,0,0,0-1.45.8l-2.5-1.18L391.74,98l1.72,2.16a7,7,0,0,0-.44,1.59l-2.61,1,.3,2.61,2.8.33a6.49,6.49,0,0,0,.79,1.37Zm4.93-8.29a2.59,2.59,0,1,1,.43,3.64A2.6,2.6,0,0,1,398,101.28Z"/></g></g></svg>