<svg xmlns="http://www.w3.org/2000/svg" xmlns:xlink="http://www.w3.org/1999/xlink" viewBox="0 0 108.48 82.93"><defs><style>.cls-1{fill:none;}.cls-2{fill:#22b5bf;}.cls-3{fill:#eaeaea;}.cls-4{fill:#d9d9d9;}.cls-5{fill:url(#linear-gradient);}.cls-6{fill:#a7d0e6;}.cls-7{fill:#9aecf4;}.cls-8{fill:#91dfe6;}.cls-9{isolation:isolate;}.cls-10{clip-path:url(#clip-path);}.cls-11{fill:#858585;}.cls-12{fill:#8e8e8e;}.cls-13{fill:gray;}.cls-14{fill:#eaebef;}.cls-15{fill:#bcd0e2;}.cls-16{fill:#163f59;}.cls-17{fill:#194866;}.cls-18{clip-path:url(#clip-path-2);}.cls-19{fill:#5d3227;}.cls-20{fill:#59d4ce;}.cls-21{clip-path:url(#clip-path-3);}.cls-22{fill:#b0bfde;}.cls-23{fill:#dbdac6;}.cls-24{fill:#c4d1e1;}.cls-25{fill:#e4eef3;}.cls-26{fill:#e9d6b8;}.cls-27{fill:#e2c59c;}.cls-28{fill:#081832;}.cls-29{fill:#b6c2c9;}.cls-30{fill:#d8e5ed;}.cls-31{fill:#879ba6;}.cls-32{fill:#d9e1e4;}.cls-33{fill:#cdd5d7;}.cls-34{fill:#282723;}.cls-35{fill:#161711;}.cls-36{fill:#1f6cd1;}.cls-37{fill:#d1dbea;}.cls-38{fill:#2c7eea;}.cls-39{fill:#b7bec0;}.cls-40{fill:#ff5931;}.cls-41{fill:#e5e8ec;}.cls-42{fill:#f3aa06;}.cls-43{fill:#fff;}.cls-44{fill:#c9c8b6;}.cls-45{fill:#2b99f1;}.cls-46{fill:#596273;}.cls-47{fill:#fdbf14;}.cls-48{fill:#4e99ff;}</style><linearGradient id="linear-gradient" x1="75.2" y1="2.12" x2="79.45" y2="2.12" gradientUnits="userSpaceOnUse"><stop offset="0" stop-color="#39c2ff"/><stop offset="1" stop-color="#007ac4"/></linearGradient><clipPath id="clip-path"><path class="cls-1" d="M102.69,71.33l-2.62.42a21,21,0,0,0,3.77-12.32l2.62-.42A21,21,0,0,1,102.69,71.33Z"/></clipPath><clipPath id="clip-path-2"><path class="cls-1" d="M80.56,35.37,83.18,35a18.08,18.08,0,0,0-2.57.61L78,36A17.27,17.27,0,0,1,80.56,35.37Z"/></clipPath><clipPath id="clip-path-3"><path class="cls-2" d="M86.57,79.62,83.94,80a16.21,16.21,0,0,1-2.11.22c-.52,0-1.06,0-1.6,0C70,79.9,61.62,71,60.9,60c0-.54,0-1.09,0-1.63,0-9.27,5.53-17,13.16-19.56a2.22,2.22,0,0,1,.31-.1l2.62-.43-.31.1C69,41,63.51,48.68,63.47,58c0,.55,0,1.1.05,1.64.72,11,9.09,19.89,19.33,20.25.55,0,1.08,0,1.61,0A18.39,18.39,0,0,0,86.57,79.62Z"/></clipPath></defs><g id="Layer_2" data-name="Layer 2"><g id="dizajn"><path class="cls-3" d="M79.45,15.83A1.16,1.16,0,0,1,78.29,17h-10a1.16,1.16,0,0,1-1.16-1.15V1.16A1.16,1.16,0,0,1,68.26,0H75.2l4.25,4.25Z"/><polygon class="cls-4" points="75.59 3.86 79.45 7.67 79.45 4.25 79.06 3.86 75.59 3.86"/><path class="cls-5" d="M75.2,0V3.09a1.16,1.16,0,0,0,1.16,1.16h3.09Z"/><rect class="cls-6" x="69.41" y="9.26" width="7.72" height="0.77"/><rect class="cls-6" x="69.41" y="10.81" width="7.72" height="0.77"/><rect class="cls-6" x="69.41" y="12.35" width="7.72" height="0.77"/><rect class="cls-6" x="69.41" y="7.72" width="5.79" height="0.77"/><path class="cls-7" d="M89.94,21.63A1.06,1.06,0,0,0,91,22.68h.71v2.47l2.46-2.47h8.11a1.05,1.05,0,0,0,1.06-1.05V12.81a1.05,1.05,0,0,0-1.06-1.05H91a1.06,1.06,0,0,0-1.06,1.05Z"/><rect class="cls-8" x="92.06" y="14.93" width="9.17" height="0.71"/><rect class="cls-8" x="92.06" y="16.69" width="9.17" height="0.71"/><rect class="cls-8" x="92.06" y="18.45" width="9.17" height="0.71"/><g class="cls-9"><g class="cls-9"><g class="cls-10"><g class="cls-9"><path class="cls-11" d="M102.69,71.33l-2.62.42a21,21,0,0,0,3.77-12.32l2.62-.42a21,21,0,0,1-3.77,12.32"/></g></g></g><path class="cls-12" d="M87,58.31l15.69,13A21,21,0,0,0,106.46,59a21,21,0,0,1-3.77,12.32Z"/><polygon class="cls-13" points="102.69 71.33 100.07 71.75 84.38 58.73 87 58.31 102.69 71.33"/><path class="cls-14" d="M87,58.31l19.46.7a21,21,0,0,1-3.77,12.32Z"/><polygon class="cls-15" points="102.69 71.33 100.07 71.75 84.38 58.73 87 58.31 102.69 71.33"/></g><g class="cls-9"><polygon class="cls-16" points="106 56.63 103.38 57.05 83.92 56.36 86.54 55.94 106 56.63"/><path class="cls-17" d="M85.2,34.74c8.73-.39,17.09,5.73,19.88,15.3a21.78,21.78,0,0,1,.87,4.89c0,.55,0,1.11,0,1.7l-19.46-.7L80.61,35.56A18,18,0,0,1,85.2,34.74Z"/><polygon class="cls-16" points="86.54 55.94 83.92 56.36 77.98 35.98 80.61 35.56 86.54 55.94"/><g class="cls-9"><g class="cls-18"><g class="cls-9"><path class="cls-19" d="M80.61,35.56,78,36a17.27,17.27,0,0,1,2.58-.62L83.18,35a18.08,18.08,0,0,0-2.57.61"/></g></g></g></g><g class="cls-9"><path class="cls-20" d="M76.94,38.29l6,20.36,15.7,13a17.83,17.83,0,0,1-14.18,8.17c-.53,0-1.06,0-1.61,0-10.24-.36-18.61-9.29-19.33-20.25,0-.54-.05-1.09-.05-1.64,0-9.27,5.54-17,13.16-19.56Z"/><path class="cls-2" d="M86.57,79.62,83.94,80a16.21,16.21,0,0,1-2.11.22c-.52,0-1.06,0-1.6,0C70,79.9,61.62,71,60.9,60c0-.54,0-1.09,0-1.63,0-9.27,5.53-17,13.16-19.56a2.22,2.22,0,0,1,.31-.1l2.62-.43-.31.1C69,41,63.51,48.68,63.47,58c0,.55,0,1.1.05,1.64.72,11,9.09,19.89,19.33,20.25.55,0,1.08,0,1.61,0A18.39,18.39,0,0,0,86.57,79.62Z"/><g class="cls-21"><g class="cls-9"><path class="cls-2" d="M86.57,79.62,83.94,80a16.21,16.21,0,0,1-2.11.22c-.52,0-1.06,0-1.6,0C70,79.9,61.62,71,60.9,60c0-.54,0-1.09,0-1.63a21.3,21.3,0,0,1,6.73-15.73l2.62-.43A21.3,21.3,0,0,0,63.47,58c0,.55,0,1.1.05,1.64.72,11,9.09,19.89,19.33,20.25.55,0,1.08,0,1.61,0a18.39,18.39,0,0,0,2.11-.22"/><path class="cls-2" d="M70.2,42.22l-2.62.43A18.16,18.16,0,0,1,74,38.82a2.22,2.22,0,0,1,.31-.1l2.62-.43-.31.1a18.55,18.55,0,0,0-6.43,3.83"/></g></g></g><path class="cls-15" d="M69.62,61.3c1,.27,3,1.21,3.39,2.82.6,2.41-.61,5.95,1.31,9.42.61,1.1-10.63,2.59-10.63,2.59l-2.17-12.2a26.9,26.9,0,0,1,3.27-2.82A9.1,9.1,0,0,1,69.62,61.3Z"/><path class="cls-22" d="M61.51,63.94c-.39,1-1.38,6.77-.28,8.14.13.15-.57.4-.44,1.12,0,.12.23.7.23.7l.9.23,2.71-1.54L64.11,72h-.25a.54.54,0,0,1-.16-.48A26,26,0,0,1,62,66.28,12.31,12.31,0,0,0,61.51,63.94Z"/><path class="cls-23" d="M62.56,71.8l.8-.17.32-.06a.67.67,0,0,0,.18.39l-.62,0-.73.15-.88.51Z"/><path class="cls-24" d="M63.71,72.55a2.34,2.34,0,0,0-1.15.32c-.41.25-.78.79-.41,1.08a6,6,0,0,0,.94.56S64.51,74.55,63.71,72.55Z"/><path class="cls-25" d="M62.15,74l.38-.08a7.19,7.19,0,0,1,1.49,0c.19.1.78.51.78.51l.13.11a.65.65,0,0,1-.69-.09c-.39-.28-.42-.07-.42-.07l.06.35v.44l.06.19s.06.1,0,.14a.24.24,0,0,1-.25,0l-.39-.69-.11.76a.25.25,0,0,1-.18.12c-.11,0-.11,0-.11,0l-.09-.19a.23.23,0,0,1-.08.13.35.35,0,0,1-.24.06l0-.79-.16.4a.32.32,0,0,1-.18.13l-.17,0Z"/><path class="cls-26" d="M68.9,70.87a5.49,5.49,0,0,1-3.22,3c-.39.12-.63.54-.44.68a2,2,0,0,0,1.14.21,5.79,5.79,0,0,0,3.92-1.46c1.66-1.6,2.18-2.33,2-3.13S68.9,70.87,68.9,70.87Z"/><path class="cls-22" d="M72.68,63.31a7.69,7.69,0,0,1,.76,3.88c0,1.4-1.22,3.7-1.4,4.41,0,.12-.11.63-.11.63l-1.34,1.32-2.7-1.83.82-1.26.24,0a4.21,4.21,0,0,0,.12-1c0-.27.74-3.9,1.13-6.22C70.43,62,72.21,62.53,72.68,63.31Z"/><path class="cls-15" d="M70.27,70.44l-.79-.24-.32-.08a.6.6,0,0,1-.21.37l.62.07.72.21.83.58Z"/><path class="cls-26" d="M65.86,73.9l-1.38-.38s-.39.52-.31.65a3.83,3.83,0,0,1,0,.9l.66.57.54-.18s0-.24-.15-.26.13-.16.23-.21S66.34,74.52,65.86,73.9Z"/><rect class="cls-27" x="65.18" y="58.72" width="2.5" height="3.78" rx="0.42" transform="translate(-16.32 25.41) rotate(-19.33)"/><rect class="cls-26" x="64.02" y="58.37" width="3.52" height="4.7" rx="0.54" transform="translate(-13.76 19.64) rotate(-15.4)"/><path class="cls-16" d="M63.79,60.16a2.18,2.18,0,0,1-.52-.44.8.8,0,0,1,.16-.74c.21-.23.51,0,.51,0s-.35.34-.35.44S63.79,60.16,63.79,60.16Z"/><path class="cls-17" d="M67.67,60a8.28,8.28,0,0,0-.19-1.81c-.17-.37-.29-.63-.78-.55-.74.14-.7.29-1.11.17a12.8,12.8,0,0,0-1.41-.47.75.75,0,0,0-.75,1,.78.78,0,0,1-.15.73,1.29,1.29,0,0,0,.46.12A2,2,0,0,0,65.35,59c.47-.27,1.32-.81,1.53-.47s.48,1.48.55,1.56S67.6,60.1,67.67,60Z"/><rect class="cls-26" x="67.07" y="60.02" width="0.89" height="1.32" rx="0.18" transform="translate(-13.75 20.23) rotate(-15.49)"/><rect class="cls-26" x="64.04" y="60.85" width="0.89" height="1.32" rx="0.18" transform="translate(-14.08 19.44) rotate(-15.48)"/><path class="cls-17" d="M67.53,60.38s.37,1.37.5,1.83.2,1.36-2.14,2a1.2,1.2,0,0,1-1.7-1A3.18,3.18,0,0,1,64.3,62s.16.57.16.57a1.13,1.13,0,0,1,.79-.81c1.06-.29,1.47.26,1.94.12S67.65,61.06,67.53,60.38Z"/><path class="cls-26" d="M65.94,62.49l-.73.2a.18.18,0,0,1-.22-.13l0-.1,1.07-.3,0,.1A.19.19,0,0,1,65.94,62.49Z"/><path class="cls-28" d="M54.47,76.4c.33.92,6.2,4.33,8.16,4.13l5.93.28c5-.62,7.42-8.44,7.42-8.44-.2-2-5.16.88-6.93,1.76a12.6,12.6,0,0,1-4.58,1.47c-1.87.19-4-1.25-6.41-1.3C55.46,74.24,53.94,74.94,54.47,76.4Z"/><path class="cls-29" d="M67.36,75.46h0V75.2L57.16,75v.24h0l0,0a.68.68,0,0,0,.63.26l8.88.16a.66.66,0,0,0,.64-.24Z"/><path class="cls-30" d="M64.9,75.45h0l0,0a.47.47,0,0,0,.15.13l1.55,0a.68.68,0,0,0,.61-.19l0,0h0V75.3l-2.36,0Z"/><rect class="cls-31" x="60.89" y="72.68" width="0.17" height="5.1" transform="translate(-15.34 134.84) rotate(-88.97)"/><path class="cls-32" d="M64.85,75.15l-1.23-5a.34.34,0,0,0-.3-.24l-7.16-.13A.18.18,0,0,0,56,70l1.23,5Z"/><path class="cls-29" d="M60.85,72.45a.35.35,0,0,1-.35.46.65.65,0,0,1-.58-.48.34.34,0,0,1,.35-.45A.63.63,0,0,1,60.85,72.45Z"/><path class="cls-26" d="M69.46,82.11c-.7.12-1.24-.7-1.24-.7L66.4,80l.38-1,3.55,1.6S70.17,82,69.46,82.11Z"/><path class="cls-20" d="M68.22,81.36a2,2,0,0,0,.13.46c.14.37.3.5.48.56.68.2,1.17.09,2.81.41s2.12.08,2.61-.68,0-1.34-.82-1.4c-1.16-.09-1.8,0-2.4,0a1.94,1.94,0,0,1-1-.47c-.35-.21-.67,1.06-.34,1.35S68.46,81.84,68.22,81.36Z"/><path class="cls-33" d="M68.57,82.09c.68.2,1.17.1,2.81.41s2.12.08,2.6-.67a.89.89,0,0,0,.11-.91.81.81,0,0,1,.16,1.19c-.49.76-1,1-2.61.68s-2.13-.21-2.81-.41a.61.61,0,0,1-.38-.34Z"/><path class="cls-26" d="M68.22,81.38v0a0,0,0,0,0,0,0Z"/><path class="cls-33" d="M71.76,82s.09-.08.11-.22a4.24,4.24,0,0,1,.19-.84c0-.14,0-.26,0-.28s-.15.08-.2.22a3.4,3.4,0,0,0-.17.83C71.66,81.8,71.7,81.93,71.76,82Z"/><path class="cls-33" d="M71.25,81.86s.1-.09.12-.22a3.25,3.25,0,0,1,.19-.79c0-.13,0-.24,0-.25s-.16.09-.2.22a3.66,3.66,0,0,0-.18.78C71.15,81.73,71.19,81.84,71.25,81.86Z"/><path class="cls-33" d="M70.72,81.83s.11-.09.13-.23a4.07,4.07,0,0,1,.22-.81c.05-.14.06-.25,0-.26s-.16.11-.21.24a4,4,0,0,0-.21.81C70.62,81.71,70.66,81.83,70.72,81.83Z"/><path class="cls-16" d="M69.34,79.77s-12.53-5.15-13.25-5.16c-2.42,0-1.86,2.43-.64,3.58C56.9,79.55,67.9,82,67.9,82Z"/><polygon class="cls-26" points="64.37 80.67 67.79 77.42 66.33 75.98 62.59 79.9 64.37 80.67"/><path class="cls-17" d="M63.66,78.12s8.7-8,9.29-8.22c2-.81,3.22,1.39,3.15,2.14-.09,1-8.93,9-8.93,9Z"/><path class="cls-20" d="M58.5,80.92a1.48,1.48,0,0,0-.24.74,20.73,20.73,0,0,0,3.93,1.12,5.44,5.44,0,0,0,1.2-.23c.07,0,.25-.22.33-.24s.17.09.29,0a3,3,0,0,0,.53-.19,2.93,2.93,0,0,0,.41-2s-1.34.38-1.11.08c.49-.64-.91-1.29-1.22-1C61.38,80.71,59.09,80.38,58.5,80.92Z"/><path class="cls-33" d="M58.34,81.19a26.36,26.36,0,0,0,3.14,1.11,6.36,6.36,0,0,0,3.31-.75,5.36,5.36,0,0,1-.25.62,3,3,0,0,1-.53.19c-.12,0-.16-.09-.29,0s-.26.22-.33.24a5.44,5.44,0,0,1-1.2.23,20.73,20.73,0,0,1-3.93-1.12A2.06,2.06,0,0,1,58.34,81.19Z"/><path class="cls-33" d="M60.39,80.34s.09.11.25.15a5,5,0,0,1,1,.3c.16.06.31.08.33,0s-.09-.16-.25-.22a4.71,4.71,0,0,0-1-.29C60.57,80.27,60.42,80.29,60.39,80.34Z"/><path class="cls-33" d="M61,80.11c0,.06.09.13.25.17a5.88,5.88,0,0,1,1,.38c.15.07.29.1.31,0s-.09-.18-.24-.25a5.36,5.36,0,0,0-.94-.36C61.22,80.05,61.07,80.06,61,80.11Z"/><path class="cls-33" d="M61.67,79.91s.09.14.24.2a4.76,4.76,0,0,1,.91.44c.15.09.28.12.3.06s-.08-.19-.22-.27a5,5,0,0,0-.91-.43C61.84,79.85,61.69,79.86,61.67,79.91Z"/><path class="cls-34" d="M86.63,24a2.25,2.25,0,1,1-1-3A2.22,2.22,0,0,1,86.63,24Z"/><path class="cls-34" d="M87.76,26.78A2.84,2.84,0,1,1,86.43,23,2.8,2.8,0,0,1,87.76,26.78Z"/><path class="cls-27" d="M85.4,29.83s-.09.37,1.69.82a34.33,34.33,0,0,0,4.5.67l-4-1.42S86,29.43,85.4,29.83Z"/><path class="cls-27" d="M90.16,31.1a3,3,0,0,1,1.37,1,5.33,5.33,0,0,1,.57.52c-.08-.42-.35-.5-.45-.66s-.09-.08.22,0,.38.42.55.65a.83.83,0,0,0,.26.24,3.64,3.64,0,0,0-.34-.69,4.4,4.4,0,0,0-.68-.82A3.4,3.4,0,0,0,90.53,31C90.07,30.88,89.55,30.93,90.16,31.1Z"/><path class="cls-27" d="M91.61,31.31a4.72,4.72,0,0,1,.69.47c.06.08.29.52.29.52a.88.88,0,0,1-.33-.28A7.36,7.36,0,0,0,91.61,31.31Z"/><path class="cls-22" d="M86.39,29.29s-1.65-.37-1.82.63a.78.78,0,0,0,.72,1c.93.19,2,.36,2,.36l.9-1.36Z"/><path class="cls-22" d="M86.48,28.47,86,24s0-1.18-.39-1.16c-.61,0-.73,1.05-.78,1.42a12,12,0,0,0-.26,2.92c0,1.15-.07,2.46,0,3.24,0,.54.58-.06,1.12-.11C86.73,30.18,86.48,28.47,86.48,28.47Z"/><polygon class="cls-26" points="96.39 41.11 97.89 44.38 99.99 44.43 101.04 44.21 98.77 43.67 97.55 40.64 96.39 41.11"/><path class="cls-35" d="M98.13,44.9l.27-.07.16-.34,1.69.08,1.35-.25s0-.11-.09-.14a5.94,5.94,0,0,0-1.29-.19s.11.29,0,.35a10.79,10.79,0,0,1-1.74-.06c-.53-.08-.81-.21-.79-.14S98.13,44.9,98.13,44.9Z"/><path class="cls-36" d="M88,34.47,93,34.34l3.67,8,1.52-.6L94.58,32.1s-.29-.61-1.77-.61-7.3-.16-8,0C83.27,32,88.31,33.13,88,34.47Z"/><path class="cls-34" d="M84.53,21.1a2.25,2.25,0,1,1-1.06-3A2.23,2.23,0,0,1,84.53,21.1Z"/><path class="cls-34" d="M86.83,20.39a1.69,1.69,0,0,1-2.26.78l0-.9A1.7,1.7,0,0,1,83.76,18l.28-.57a1.69,1.69,0,0,1,2.26-.78l.38.19a1.69,1.69,0,0,1,.78,2.26Z"/><path class="cls-26" d="M87.31,17.86a3.38,3.38,0,0,1-.24.41,2.24,2.24,0,0,1-2.28,1.13A5.21,5.21,0,0,1,84,20.47,2.58,2.58,0,0,1,83,21a1.83,1.83,0,0,0,1.39,2.62c.95.12.76-.89.43-1.51a1.59,1.59,0,0,1-.27-.8c.11-.58.33-.65.67-.85a1.38,1.38,0,0,1,1.09,0,.18.18,0,0,0,.16,0,1.57,1.57,0,0,0,.2-.3l.61-1.25A1.2,1.2,0,0,0,87.31,17.86Z"/><path class="cls-16" d="M82.35,32.87s.72.15.92.23a3.38,3.38,0,0,0,1.06,0s.1-3.87.28-5.22.55-1.72.54-2.14A4.48,4.48,0,0,0,85,24.35c-.12-.53.23-1.22.12-1.09a1.06,1.06,0,0,1-1.58-.19C83.39,22.94,82.35,32.87,82.35,32.87Z"/><path class="cls-37" d="M84.91,21.69s1,1,1,1.32a23.76,23.76,0,0,1-.17,3.14A22,22,0,0,0,85.25,29c0,1.07.21,1.3.12,2.61-.07,1-.23,1.92-.23,1.92a.86.86,0,0,1-.82-.25c-.35-.38-.22-3.93-.09-4.81s.64-3.17.61-3.78a13.19,13.19,0,0,0-.33-2.25C84.24,22,84.84,21.74,84.91,21.69Z"/><path class="cls-22" d="M84.92,21.6a.92.92,0,0,1-.12.13,2.33,2.33,0,0,0-.29.26s.19-.09.27.08a3.58,3.58,0,0,1,.15.68s.36-.6.27-.79C85.05,21.61,84.92,21.6,84.92,21.6Z"/><path class="cls-34" d="M83.57,24A2.35,2.35,0,1,1,82,21.06,2.34,2.34,0,0,1,83.57,24Z"/><polygon class="cls-26" points="91.53 41.83 91.6 44.12 92.07 44.66 93.31 45.38 94.23 45.21 92.61 44 92.49 41.6 91.53 41.83"/><path class="cls-35" d="M91.67,44.62l.42.3.13-.11,1.38.76s.73.37.93.13c.07-.07,0-.32-.25-.5A1.48,1.48,0,0,0,94,45s0,.18-.46.25a9.17,9.17,0,0,1-1.23-.66,3.51,3.51,0,0,1-.74-.58C91.48,44.11,91.67,44.62,91.67,44.62Z"/><path class="cls-38" d="M81.77,29.75l.59,1.41,1,.12,8.24.53s.74-.23,1.21.94c.67,1.66-.2,10-.2,10l-1.22,0-.66-7.84s-7.93,1.39-10.22.69c-.87-.27-1.54-1.82-1.42-3.38A5.32,5.32,0,0,1,80,29.82Z"/><path class="cls-37" d="M82.89,32.7s.38-3.45.6-5.09.17-4.38.22-4.78a5.62,5.62,0,0,1,.26-1s-.4-.89-.92-.86a13.69,13.69,0,0,0-2.6.79c-.49.2-.23,5.71-.28,6a14.64,14.64,0,0,1-1,3.08,11.29,11.29,0,0,0-.47,1.64A12.86,12.86,0,0,1,82.89,32.7Z"/><path class="cls-22" d="M83.15,20.74l.38.43s.55.75.37.65-.48.65-.48.65L82.7,21Z"/><path class="cls-26" d="M80,29.14s-.6.43,1.68.66a46.2,46.2,0,0,0,5.68.07l-5.21-1A3.25,3.25,0,0,0,80,29.14Z"/><path class="cls-26" d="M85.53,29.84a4.05,4.05,0,0,1,1.89.9c.4.21.8.5.8.49-.18-.45-.53-.51-.69-.66s-.12-.09.27-.07c.22,0,.56.42.81.65a.91.91,0,0,0,.36.23,4.65,4.65,0,0,0-.54-.72,5.73,5.73,0,0,0-1-.82A4.88,4.88,0,0,0,86,29.6C85.38,29.6,84.75,29.73,85.53,29.84Z"/><path class="cls-26" d="M87.37,29.85a6.13,6.13,0,0,1,.93.42c.09.08.46.54.46.54a1.22,1.22,0,0,1-.46-.26A9.28,9.28,0,0,0,87.37,29.85Z"/><path class="cls-22" d="M81.33,28.49l.74-5a3.89,3.89,0,0,0-.5-1.39,1.35,1.35,0,0,0-1.11-.29s-.85.69-.91,4.67c0,2.72-.29,3.84.88,4s2.35.18,2.35.18L83.61,29Z"/><rect class="cls-33" x="87.52" y="31.21" width="7.2" height="0.15"/><path class="cls-33" d="M90.7,31.2a.19.19,0,0,0,.18.21h3.69c.1,0,.24-.07.36-.37l1.82-3.33a.19.19,0,0,0-.21-.21l-3.78.12c-.11,0-.19.1-.25.25Z"/><path class="cls-39" d="M91.14,31.36H87.5a1.35,1.35,0,0,0,.59.11h6.07a1.35,1.35,0,0,0,.59-.11Z"/><path class="cls-40" d="M42,76.75l-.06,1.53H40.69s-.07-.18-.18-.18-.2.18-.32.18H37S37,78,37,77.9a1.22,1.22,0,0,1,.38-.18c.65-.2,2.49-.82,2.81-1.5S42,76.75,42,76.75Z"/><path class="cls-41" d="M37,78a1.12,1.12,0,0,0,0,.32h3.17c.12,0,.23-.18.32-.18s.18.18.18.18h1.25L42,78Z"/><path class="cls-41" d="M39.32,77.36s-.1,0-.2-.08-.21-.17-.15-.2.09,0,.23.07S39.34,77.32,39.32,77.36Z"/><path class="cls-41" d="M39.65,77.2s-.1,0-.19-.09-.21-.17-.15-.2.09,0,.22.07S39.68,77.16,39.65,77.2Z"/><path class="cls-41" d="M40,77s-.1,0-.19-.08-.21-.17-.15-.2.09,0,.22.07S40,77,40,77Z"/><path class="cls-40" d="M51.46,78.3a1,1,0,0,1,0,.53,11.64,11.64,0,0,1-2.54.08,3.53,3.53,0,0,1-.68-.36c-.05,0-.12-.19-.16-.22s-.12,0-.19,0a2.42,2.42,0,0,1-.29-.22,2.27,2.27,0,0,1,0-1.37s1.23-.6,1.54-.18C49.94,77.54,51.19,77.83,51.46,78.3Z"/><path class="cls-41" d="M51.52,78.51a15,15,0,0,1-2.07.2,3.83,3.83,0,0,1-1.88-1.07,4.49,4.49,0,0,0,.06.46,2.42,2.42,0,0,0,.29.22c.07.05.11,0,.19,0s.11.19.16.22a3.53,3.53,0,0,0,.68.36,11.64,11.64,0,0,0,2.54-.08A1.27,1.27,0,0,0,51.52,78.51Z"/><path class="cls-41" d="M50.47,77.58s-.07.07-.17.06a3.05,3.05,0,0,0-.67,0c-.11,0-.2,0-.2-.05s.08-.1.19-.11a2.35,2.35,0,0,1,.65,0C50.37,77.49,50.47,77.54,50.47,77.58Z"/><path class="cls-41" d="M50.1,77.29s-.07.08-.18.08a3,3,0,0,0-.65.1c-.11,0-.2,0-.2,0s.08-.11.19-.14a2.8,2.8,0,0,1,.64-.08C50,77.21,50.1,77.25,50.1,77.29Z"/><path class="cls-41" d="M49.75,77s-.08.08-.19.1a3.93,3.93,0,0,0-.64.15c-.1,0-.19,0-.19,0s.08-.12.18-.16a2.94,2.94,0,0,1,.64-.14C49.65,77,49.74,77,49.75,77Z"/><path class="cls-26" d="M38.61,39.85l.2-1.18.07-.68,0-.91s-.28-.36-.4.5a5.45,5.45,0,0,1-.21-.88L38,36l-.25-.11-.58.36s.06.32.52.16c0,0,.08.58.08.58l-.61.9s-.12.46.06.67l.19.2.07-.08,0,.9a.79.79,0,0,0,.38.5c.3.15.13.49.13.49Z"/><path class="cls-22" d="M39.83,46.69s1.21-2.42.91-3.3-1.55-4.15-1.55-4.15l-1.54.85s1.09,6.4,1.44,6.83S39.74,46.82,39.83,46.69Z"/><path class="cls-16" d="M39.53,76.67l2.55.09-.62-26.67-5.4-1.61S36.91,65.85,39.53,76.67Z"/><polygon class="cls-17" points="43.54 50.6 50.2 77.19 47.19 77.27 37.37 48.99 43.54 50.6"/><path class="cls-17" d="M41.46,50.27,41,50l-5-1.49s.08,1.76.29,4.52l5.25,3Z"/><path class="cls-16" d="M43.57,50.7l0-.1-3-.79-4.46-1.33s0,.31,0,.88Z"/><path class="cls-37" d="M46.68,36.55s-2.91-2-5.53,1.36-5.37,10.51-5.37,10.51l8,2.61,2.6-10.34S47.81,37.23,46.68,36.55Z"/><path class="cls-22" d="M46.71,36.69s.9-.08.51,2.64-1.34,8-1.77,9.37c-.11.33-.55,1.88-1.24.94s-1.16-4.54,0-9.2C45,37.45,46.24,36.69,46.71,36.69Z"/><polygon class="cls-35" points="36.37 41.23 36.22 41.41 36.8 43.23 37.96 43.57 38.22 43.32 37.78 41.69 36.37 41.23"/><path class="cls-26" d="M40.36,43.64l-1.69-1-.67-.1.18.59-.67.25-.67-.25-.31-.44-.13.49a.93.93,0,0,0,.22.44c.18.2.8,1.28.8,1.28l.49-.1L39,44.53l.71.54Z"/><path class="cls-22" d="M45,49.18S44.62,46.46,43.9,46s-3.5-2.27-3.5-2.27l-.77,1.7s4.38,4.37,4.89,4.49S45,49.36,45,49.18Z"/><path class="cls-26" d="M42,35.34a12.13,12.13,0,0,0,.88,2.19c.55.49,2.18-.78,2-1.13A10.28,10.28,0,0,1,44.36,34C44.38,33.7,41.72,34.49,42,35.34Z"/><path class="cls-27" d="M42.92,34.31a4.77,4.77,0,0,1,1.22-.38c0,.48,0,1,0,1.27A2.52,2.52,0,0,1,43,36.92a1.39,1.39,0,0,1-.34.2c-.11-.24-.31-.76-.66-1.78C41.88,35,42.36,34.58,42.92,34.31Z"/><path class="cls-26" d="M40.67,31.5l.17,4.1s0,1,.42,1.07a2.64,2.64,0,0,0,1.82-.4,2.54,2.54,0,0,0,1.14-1.72,29.69,29.69,0,0,0-.12-3s-.34-.66-1.65-.14S40.67,31.5,40.67,31.5Z"/><path class="cls-17" d="M40.77,30.5a.8.8,0,0,0-.55.54.81.81,0,0,0,.54.81,12.34,12.34,0,0,0,2.31-.2,1.48,1.48,0,0,0,.81-.56c.11-.23-.59-.64-1-.49C41.88,31,41.44,30.26,40.77,30.5Z"/><path class="cls-17" d="M43.41,31.14l.08,1.77.18.93.21,0,.39,0s.55-2.48-.07-2.71S43.44,31,43.41,31.14Z"/><path class="cls-26" d="M43.91,34a.27.27,0,0,0,.3.25h.17a.3.3,0,0,0,.27-.3l0-.65a.26.26,0,0,0-.3-.25h-.16a.29.29,0,0,0-.27.3Z"/><polygon class="cls-16" points="42.98 31.09 43.64 30.96 43.95 32.89 43.29 33.02 42.98 31.09"/><path class="cls-26" d="M43.21,32.56a1,1,0,0,0-1.16-.89l-.51.1c-.55.11-.76.66-.67,1.26h0a1,1,0,0,0,1.17.9l.36-.07a1.11,1.11,0,0,0,.81-1.3Z"/><polygon class="cls-42" points="14.46 35.45 14.46 32.64 11.66 32.64 14.46 35.45"/><rect class="cls-42" x="6.38" y="24.59" width="10.07" height="8.69" rx="1.09"/><path class="cls-38" d="M53.27,51.29a1.07,1.07,0,0,0,1.06,1.06H55l2.46,2.46V52.35h8.11a1.06,1.06,0,0,0,1.06-1.06V42.48a1.05,1.05,0,0,0-1.06-1.06H54.33a1.06,1.06,0,0,0-1.06,1.06Z"/><path class="cls-43" d="M62.87,47.31l0-.83-.74,0a2.1,2.1,0,0,0-.3-.74l.48-.6-.6-.57-.56.49a2.12,2.12,0,0,0-.74-.31l-.08-.76h-.83l0,.74a2.48,2.48,0,0,0-.75.31l-.59-.48-.58.6.49.56a2.32,2.32,0,0,0-.31.74l-.76.08,0,.83.74.05a2.25,2.25,0,0,0,.31.75l-.49.59.6.58.56-.49a2.48,2.48,0,0,0,.75.31l.08.76.83,0,0-.74a2.17,2.17,0,0,0,.75-.31l.6.48.57-.6-.49-.55a2.25,2.25,0,0,0,.31-.75ZM59.92,48A1.1,1.1,0,1,1,61,46.88,1.09,1.09,0,0,1,59.92,48Z"/><path class="cls-40" d="M23.63,36.68a2.15,2.15,0,0,1-2.15,2.15l-.54-1c-1.19,0-2.15-1.79-2.15-3V34a2.15,2.15,0,0,1,2.15-2.15h.54A2.15,2.15,0,0,1,23.63,34Z"/><path class="cls-40" d="M19.13,34l-.34,0a3.15,3.15,0,0,1,0,.44,2.83,2.83,0,0,1-2.51,2.78A2.86,2.86,0,1,0,19.13,34Z"/><path class="cls-26" d="M22.77,32.68a4.3,4.3,0,0,1-.05.61,2.86,2.86,0,0,1-2,2.56,6.64,6.64,0,0,1-.3,1.67,3.19,3.19,0,0,1-.81,1.12c-.16,1,3.13,2.39,3.05,2.23a9,9,0,0,1-1.15-2.34,2.1,2.1,0,0,1,.33-1.74,1.76,1.76,0,0,1,1.26-.59.25.25,0,0,0,.18-.08,1.69,1.69,0,0,0,.07-.45V33.89A1.54,1.54,0,0,0,22.77,32.68Z"/><path class="cls-23" d="M21.33,46.87a1.69,1.69,0,0,1-2.69,0l-2.07-6.43c-.37-.89,0-1.62.88-1.62h2.29l1,.5.92-.5h.55c.85,0,1.24.73.88,1.62Z"/><path class="cls-23" d="M23.2,39.41l2.06,6.22s.14.42-.29.14c-.61-.4-2-1.85-3.18-4.73C20.9,38.92,22.65,39.29,23.2,39.41Z"/><path class="cls-26" d="M23.66,63c-.09-.35-.16-.69-.25-1-.34-.53-.64-.83-.89-.83-.95,0-1.45,3.22.48,9.38.11.35,1.8,6.54,1.81,6.29A87.81,87.81,0,0,0,23.66,63Z"/><path class="cls-26" d="M17.88,63.09c.07-.35.17-.69.26-1-.06-.62-.19-1-.41-1.14-.83-.45-2.78,2.17-4,8.53-.06.35-1.45,6.62-1.33,6.4A88.85,88.85,0,0,0,17.88,63.09Z"/><polygon class="cls-44" points="20.49 39.1 19.88 39.77 19.26 38.89 19.63 38.34 20.49 39.1"/><polygon class="cls-44" points="21.79 38.36 20.67 39.21 21.27 39.84 22.11 38.73 21.79 38.36"/><path class="cls-44" d="M20.57,47.05l.37-.1a15.66,15.66,0,0,0-.16-7.79l-.35-.08A15.91,15.91,0,0,1,20.57,47.05Z"/><path class="cls-16" d="M24.11,64.82a3.79,3.79,0,0,0,.07-.71c-.05-1.44,0-2.9-.23-5.64a73,73,0,0,0-1.88-11.14,5.93,5.93,0,0,0-.39-1.19c-1-.14-2.06.56-3.12.86a10.27,10.27,0,0,0-1,2.63,94.41,94.41,0,0,0-2,9.71c-.31,2.22-.34,4-.5,5.17C18,69.38,21,60.32,24.11,64.82Z"/><path class="cls-26" d="M25,45.46s-.43-.12.2-2.45a49.15,49.15,0,0,1,2-5.58l-1,5.47S25.8,45,25,45.46Z"/><path class="cls-26" d="M26.6,39.21A4.31,4.31,0,0,0,26.42,37a6.23,6.23,0,0,0-.19-1c.38.34.3.71.4.92s0,.15.16-.24c.07-.22-.2-.7-.33-1a1,1,0,0,1-.09-.45,4.26,4.26,0,0,1,.5.81,5.39,5.39,0,0,1,.43,1.28A4.78,4.78,0,0,1,27,38.87C26.77,39.45,26.41,40,26.6,39.21Z"/><path class="cls-26" d="M27.27,37.4a6.15,6.15,0,0,0-.06-1.06c-.05-.12-.36-.66-.36-.66a1.22,1.22,0,0,0,.08.55A9,9,0,0,1,27.27,37.4Z"/><path class="cls-23" d="M26.68,40.33a14.62,14.62,0,0,1-1.08,4.79c-.08.22-.17.44-.26.65s-.69-.12-.66-.72a14.46,14.46,0,0,1,1.16-4.17c.11-.29.22-.57.34-.85A5.09,5.09,0,0,1,26.68,40.33Z"/><path class="cls-26" d="M27.79,76.8a6.69,6.69,0,0,0-1.21.19c-.51.11-.86.26-1.11.15s-.71-1.93-.76-3.21c0-.14-.87-.47-.83-.31a22.33,22.33,0,0,1,.6,3.65c.08.49.3.93.54.94a14,14,0,0,0,2.81-1C28,77.07,27.83,76.74,27.79,76.8Z"/><path class="cls-16" d="M11.47,77.17c-.21,1.24-.11,2.29.22,2.34s.76-.91,1-2.15.11-2.28-.22-2.34S11.67,75.93,11.47,77.17Z"/><path class="cls-26" d="M11.72,76.53c-.29.88-.17,1.75.16,1.81s.68-.63.79-1.55a5.35,5.35,0,0,1,.45-2.29,2.08,2.08,0,0,0,.36-1.4c-.09-.1-.53.15-.59.49a3.2,3.2,0,0,1-.38,1A8.62,8.62,0,0,0,11.72,76.53Z"/><path class="cls-16" d="M27.27,76.85c.35.48-1.35.94-1.82,1a6.66,6.66,0,0,0-.73.1l0,0a.06.06,0,0,1,0,0c.13.29.16.72.62.53l2.88-1.21C30.53,76.32,27.26,76.84,27.27,76.85Z"/><polygon class="cls-33" points="26.29 58.15 26.29 58.15 26.18 58.51 26.18 58.51 27.35 58.84 27.35 58.84 27.45 58.49 27.45 58.49 26.29 58.15"/><polygon class="cls-33" points="23.22 57.27 23.22 57.27 23.12 57.62 23.12 57.62 25.09 58.19 25.09 58.19 25.19 57.83 25.19 57.83 23.22 57.27"/><polygon class="cls-33" points="20.89 56.59 20.89 56.59 20.78 56.95 20.78 56.95 22.66 57.49 22.66 57.49 22.77 57.13 22.77 57.13 20.89 56.59"/><path class="cls-33" d="M9.78,39.65A2,2,0,0,0,7.33,41L4.71,50.12a2,2,0,0,0,1.35,2.45L29,59.16A2,2,0,0,0,31.4,57.8L34,48.68a2,2,0,0,0-1.35-2.44Z"/><path class="cls-41" d="M5,50.2a1.71,1.71,0,0,0,1.17,2.1L29,58.89a1.7,1.7,0,0,0,2.1-1.16l2.63-9.13a1.69,1.69,0,0,0-1.16-2.09L9.7,39.92a1.7,1.7,0,0,0-2.1,1.16Z"/><rect class="cls-45" x="13.47" y="38.96" width="11.7" height="20.85" transform="translate(-33.48 54.3) rotate(-73.94)"/><path class="cls-46" d="M30.44,54.53a.27.27,0,0,0-.33.19.26.26,0,0,0,.19.32.27.27,0,0,0,.33-.18A.27.27,0,0,0,30.44,54.53Z"/><path class="cls-46" d="M31.89,52.85a.16.16,0,0,0-.21.12.17.17,0,0,0,.12.21.18.18,0,0,0,.21-.12A.17.17,0,0,0,31.89,52.85Z"/><path class="cls-46" d="M31.27,51.75a.13.13,0,0,0-.16.09l-.5,1.75a.13.13,0,0,0,.09.16h0a.12.12,0,0,0,.15-.09l.51-1.75a.13.13,0,0,0-.09-.16Z"/><rect class="cls-33" x="6.81" y="45.64" width="2.13" height="0.91" rx="0.23" transform="translate(-38.6 40.89) rotate(-73.92)"/><path class="cls-43" d="M22.53,50.09A2.28,2.28,0,1,1,21,47.27,2.28,2.28,0,0,1,22.53,50.09ZM20,49.1l-.61.6.82.24.83.23-.21-.83-.21-.84Z"/><path class="cls-23" d="M14.42,46.5s-.48.08-.31,2.11a23.72,23.72,0,0,0,.41,2.68c.22,1.12.57-.2.57-.2l.11-2.31S15.15,47,14.42,46.5Z"/><path class="cls-23" d="M16.64,39.06C15.35,40.62,14,47.22,14,47.22s.06,2.56,3.08-5.86C18,38.84,17,38.68,16.64,39.06Z"/><path class="cls-26" d="M15.52,55.52l-.46-.37-.28-.38L14.59,54a5.5,5.5,0,0,1,0-1.14c.08-.32-.05-1.56,0-1.71s.46-.26.46-.26.06,1.13.05,1.65A10.3,10.3,0,0,0,15.31,54a2.68,2.68,0,0,1-.08.64s-.11-.54-.12-.68-.17-.06-.17-.06a4.67,4.67,0,0,0,.17,1,1.37,1.37,0,0,0,.26.32Z"/><polygon class="cls-42" points="106.84 29.78 103.62 27.57 100.4 29.78 100.4 22.96 103.62 22.96 106.84 22.96 106.84 29.78"/><path class="cls-47" d="M108.48,20.37a4.86,4.86,0,1,1-4.86-4.85A4.85,4.85,0,0,1,108.48,20.37Z"/><polygon class="cls-43" points="103.62 17.48 104.55 18.61 106.01 18.62 105.7 20.05 106.6 21.2 105.29 21.86 104.95 23.27 103.62 22.66 102.3 23.27 101.96 21.86 100.65 21.2 101.55 20.05 101.24 18.62 102.7 18.61 103.62 17.48"/><path class="cls-42" d="M80.75,10.4l-3.1-3.19L80.75,4h7.16V10.4Zm-.1-3.87a.65.65,0,0,0-.64.65.64.64,0,1,0,1.28,0A.65.65,0,0,0,80.65,6.53Z"/><polygon class="cls-43" points="84.31 5.5 83.8 6.57 82.65 6.74 83.48 7.57 83.28 8.74 84.31 8.19 85.34 8.74 85.14 7.57 85.97 6.74 84.82 6.57 84.31 5.5"/><path class="cls-48" d="M26.32,18.08H62.53a1.35,1.35,0,0,1,1.35,1.35V29.52a1.35,1.35,0,0,1-1.35,1.35H26.32A1.34,1.34,0,0,1,25,29.52V19.43A1.34,1.34,0,0,1,26.32,18.08Z"/><rect class="cls-48" x="33.05" y="27.95" width="4.93" height="4.93" transform="translate(-11.11 34.03) rotate(-45.01)"/><path class="cls-43" d="M34,27.09v-.34a2,2,0,0,0-2-2h-2a2,2,0,0,0-2,2v.34Z"/><path class="cls-43" d="M32.27,22.38A1.35,1.35,0,1,1,30.93,21,1.34,1.34,0,0,1,32.27,22.38Z"/><path class="cls-40" d="M35.51,26.94a1.79,1.79,0,1,1-1.79-1.79A1.8,1.8,0,0,1,35.51,26.94Z"/><path class="cls-40" d="M60.23,17.12a1,1,0,0,0-1.39,0l-.23.24-.23-.24a1,1,0,0,0-1.39,0,1,1,0,0,0,0,1.39l.23.24h0l1.39,1.38L60,18.75h0l.23-.24A1,1,0,0,0,60.23,17.12Z"/><path class="cls-43" d="M57.87,22.51H55.26a7.2,7.2,0,0,0,.31-.85,3.16,3.16,0,0,0,0-.63.61.61,0,0,0-.61-.62h-.31v.95s-1.07,1.25-1.07,1.76v3a.61.61,0,0,0,.61.61h2.15a1,1,0,0,0,.83-.61l1.09-3C58.38,22.78,58.21,22.51,57.87,22.51Z"/><rect class="cls-43" x="53.15" y="22.99" width="0.82" height="3.34"/><rect class="cls-43" x="51.09" y="22.51" width="1.46" height="4.21"/><path class="cls-43" d="M45.92,20.6H39.78a.57.57,0,0,0-.58.57V26a.58.58,0,0,0,.58.58h.38v1.34l1.35-1.34h4.41A.58.58,0,0,0,46.5,26v-4.8A.57.57,0,0,0,45.92,20.6Zm-.57,4h-5v-.38h5Zm0-1h-5v-.39h5Zm0-1h-5v-.39h5Z"/><path class="cls-43" d="M9.7,29.69a.8.8,0,1,1,.8-.8A.8.8,0,0,1,9.7,29.69Zm0-1.2a.4.4,0,1,0,.4.4A.4.4,0,0,0,9.7,28.49Z"/><path class="cls-43" d="M12.37,28.22a.81.81,0,0,1,0-1.61.81.81,0,1,1,0,1.61Zm0-1.21a.41.41,0,1,0,.4.41A.4.4,0,0,0,12.37,27Z"/><path class="cls-43" d="M12.37,31.17a.81.81,0,0,1-.8-.81.8.8,0,0,1,.8-.8.81.81,0,0,1,.81.8A.82.82,0,0,1,12.37,31.17Zm0-1.21a.4.4,0,1,0,.4.4A.4.4,0,0,0,12.37,30Z"/><rect class="cls-43" x="10.09" y="27.89" width="1.89" height="0.4" transform="translate(-13.19 10.09) rotate(-31.95)"/><rect class="cls-43" x="10.83" y="28.74" width="0.4" height="1.89" transform="translate(-19.99 23.31) rotate(-58)"/><polygon class="cls-20" points="9.16 56.03 5.9 58.35 2.65 60.67 4.08 61.91 5.51 63.15 7.33 59.59 9.16 56.03"/><path class="cls-20" d="M9.45,63.5a4.87,4.87,0,1,0-6.24,2.91A4.88,4.88,0,0,0,9.45,63.5Z"/><path class="cls-43" d="M6.82,60.85H3.37l-.14-.43,0-.06h0l0,0h0l0,0h0a.26.26,0,0,0-.15,0l-.49,0a.23.23,0,0,0-.2.22.23.23,0,0,0,.23.21l.35,0,.85,2.68a.55.55,0,0,0-.12.33.52.52,0,0,0,1,.22h.69a.52.52,0,1,0,.47-.74.52.52,0,0,0-.47.31H4.59a.52.52,0,0,0-.47-.31h0L4,62.88H6.24c.26,0,.3-.17.47-.47l.58-1.09C7.52,60.89,7.08,60.85,6.82,60.85Z"/></g></g></svg>